<?xml version="1.0" standalone="no"?>
<!DOCTYPE svg PUBLIC "-//W3C//DTD SVG 1.1//EN" "http://www.w3.org/Graphics/SVG/1.1/DTD/svg11.dtd" >
<svg xmlns="http://www.w3.org/2000/svg">
<metadata></metadata>
<defs>
<font id="AktivGroteskBold" horiz-adv-x="1212" >
<font-face units-per-em="2048" ascent="1638" descent="-410" />
<missing-glyph horiz-adv-x="454" />
<glyph unicode="&#xfb01;" horiz-adv-x="0" />
<glyph unicode="&#xfb02;" horiz-adv-x="0" />
<glyph unicode="&#xfb03;" horiz-adv-x="2095" d="M29 846v223h168v35q0 191 107 287q98 88 265 88q121 0 224 -31l-39 -209q-66 16 -123 16t-102.5 -31.5t-45.5 -113.5v-41h248v-223h-248v-846h-286v846h-168zM805 846v223h168v35q0 191 107 287q98 88 265 88q121 0 224 -31l-39 -209q-66 16 -123 16t-102.5 -31.5 t-45.5 -113.5v-41h248v-223h-248v-846h-286v846h-168zM1675 1204v258h295v-258h-295zM1679 0v1069h287v-1069h-287z" />
<glyph unicode="&#xfb04;" horiz-adv-x="2095" d="M29 846v223h168v35q0 191 107 287q98 88 265 88q121 0 224 -31l-39 -209q-66 16 -123 16t-102.5 -31.5t-45.5 -113.5v-41h248v-223h-248v-846h-286v846h-168zM805 846v223h168v35q0 191 107 287q98 88 265 88q121 0 224 -31l-39 -209q-66 16 -123 16t-102.5 -31.5 t-45.5 -113.5v-41h248v-223h-248v-846h-286v846h-168zM1679 0v1462h287v-1462h-287z" />
<glyph horiz-adv-x="0" />
<glyph horiz-adv-x="0" />
<glyph unicode="&#xd;" horiz-adv-x="0" />
<glyph unicode=" "  horiz-adv-x="454" />
<glyph unicode="&#x09;" horiz-adv-x="454" />
<glyph unicode="&#xa0;" horiz-adv-x="454" />
<glyph unicode="!" horiz-adv-x="561" d="M127 1462h307l-20 -999h-267zM139 0v326h283v-326h-283z" />
<glyph unicode="&#x22;" horiz-adv-x="786" d="M70 1456h266l-17 -555h-235zM455 1456h262l-15 -555h-233z" />
<glyph unicode="#" d="M39 326v211h197l51 315h-185v209h222l53 328h244l-54 -328h219l54 328h243l-53 -328h137v-209h-170l-51 -315h152v-211h-191l-51 -326h-244l52 326h-220l-51 -326h-243l51 326h-162zM479 537h219l56 315h-219z" />
<glyph unicode="$" d="M61 453h287q4 -115 48 -174.5t136 -75.5v393q-221 41 -336.5 142.5t-115.5 301.5q0 168 112 277q120 118 340 133v186h134v-188q231 -18 342 -150q84 -98 104 -270l-274 -35q-16 113 -55.5 167t-116.5 67v-377l61 -12q209 -45 307.5 -146.5t98.5 -294.5q0 -167 -108 -283 q-125 -136 -359 -147v-211h-134v213q-355 34 -440 301q-26 84 -31 183zM362 1055.5q0 -70.5 42 -112.5t128 -64v350q-90 -11 -136 -63q-34 -40 -34 -110.5zM666 199q100 10 137 63t37 116q0 153 -174 191v-370z" />
<glyph unicode="%" horiz-adv-x="1988" d="M61 999q0 222 111 342q101 109 268 109q266 0 351 -249q29 -85 28 -202q0 -117 -27 -201q-80 -243 -351 -243q-169 0 -271 104q-109 113 -109 340zM299 999q0 -139 37.5 -191t104.5 -52t105 52t38 191t-38 193.5t-105 54.5t-104.5 -54t-37.5 -194zM498 0l713 1415h276 l-712 -1415h-277zM1167 422q0 222 111 342q102 110 268 108q268 0 350 -248q29 -85 29 -202t-28 -202q-80 -243 -350 -243q-170 0 -271 105q-109 113 -109 340zM1405 422q0 -139 37.5 -191.5t104.5 -52.5t105 52t38 192q0 139 -38 193t-106 55q-141 0 -141 -248z" />
<glyph unicode="&#x26;" horiz-adv-x="1372" d="M61 395q0 202 189 339q55 40 117 75q-146 167 -146 321q0 153 105 249q110 100 278 100q180 0 287 -96q98 -88 98 -238q0 -175 -167 -302q-50 -38 -105 -71l266 -311q45 110 45 276h254q0 -257 -139 -467l229 -270h-328l-75 90q-159 -123 -369 -123q-284 0 -422 135 q-117 112 -117 293zM348 432q0 -239 275 -239q124 0 202 61l-331 391q-146 -87 -146 -213zM477 1124q0 -94 117 -211q147 89 147 222q0 68 -33.5 103.5t-96 35.5t-98.5 -37t-36 -113z" />
<glyph unicode="'" horiz-adv-x="421" d="M70 1456h282l-14 -555h-254z" />
<glyph unicode="(" horiz-adv-x="610" d="M82 625q0 367 142 687q46 103 104 191h272q-223 -395 -223 -878q0 -484 223 -879h-272q-179 277 -230 639q-16 119 -16 240z" />
<glyph unicode=")" horiz-adv-x="610" d="M10 -254q223 395 223 879q0 483 -223 878h273q245 -378 245 -878q0 -368 -142 -687q-46 -104 -103 -192h-273z" />
<glyph unicode="*" horiz-adv-x="851" d="M41 1110l94 223l211 -123l-51 252h262l-51 -252l211 123l94 -223l-254 -57l205 -203l-201 -143l-135 227l-135 -227l-201 143l205 203z" />
<glyph unicode="+" d="M119 573v248h358v389h258v-389h359v-248h-359v-389h-258v389h-358z" />
<glyph unicode="," horiz-adv-x="503" d="M63 -193l68 523h279l-127 -523h-220z" />
<glyph unicode="-" horiz-adv-x="796" d="M92 471v283h613v-283h-613z" />
<glyph unicode="." horiz-adv-x="503" d="M106 0v330h293v-330h-293z" />
<glyph unicode="/" horiz-adv-x="784" d="M12 0l475 1503h285l-475 -1503h-285z" />
<glyph unicode="0" d="M68 709q0 376 146 565q139 180 394.5 180t396 -181t140.5 -565t-142.5 -564.5t-398.5 -180.5t-396 180.5t-140 565.5zM367 709q0 -368 124 -462q45 -34 113 -34q190 0 230 288q12 91 12 208q0 368 -128 461q-46 34 -114 34q-187 0 -225 -288q-12 -91 -12 -207z" />
<glyph unicode="1" d="M160 1128l452 287h244v-1415h-293v1083l-276 -165z" />
<glyph unicode="2" d="M78 1018q41 199 148 306q132 130 375 130t366 -116.5t123 -317.5q0 -235 -196 -442q-99 -103 -203.5 -189t-162.5 -139h582l-31 -250h-981v215q88 78 174 148.5t173 147.5t152 138.5t108 118.5q86 114 86 220t-50.5 162t-144.5 56t-152.5 -46t-87.5 -175z" />
<glyph unicode="3" d="M74 449h293q10 -133 67.5 -186.5t161.5 -53.5q229 0 229 199q0 104 -52 150t-173 46h-143v252h159q182 0 183 182q0 172 -195 172q-98 0 -157.5 -45t-86.5 -159l-274 36q40 196 152 296q132 116 368 116q232 0 362 -110q119 -102 119 -273q0 -216 -190 -319 q223 -92 223 -334q0 -323 -278 -421q-97 -34 -241.5 -34t-245.5 44t-163 113q-108 123 -118 329z" />
<glyph unicode="4" d="M53 317v195l647 903h263v-868h180l-31 -230h-149v-317h-273v317h-637zM346 547h344v493z" />
<glyph unicode="5" d="M109 412h286q10 -98 57.5 -149.5t159.5 -51.5q211 0 211 252q0 121 -53 177t-179 56t-210 -96h-242l70 815h815v-248h-575l-27 -301q95 64 227 64t215.5 -38t137.5 -102q106 -122 106 -325q0 -241 -134 -375q-127 -127 -358 -127t-363 109.5t-144 339.5z" />
<glyph unicode="6" d="M100 596.5q0 255.5 44 416.5t120 259q141 182 391 182q211 0 318.5 -88t136.5 -272l-266 -33q-23 80 -49 106q-50 50 -144 50q-133 0 -197.5 -113t-72.5 -305q113 121 313 125q209 0 319.5 -120t110.5 -349q0 -223 -136.5 -357.5t-373.5 -134.5q-276 0 -408 210 q-106 168 -106 423.5zM394 455.5q3 -62.5 17.5 -109.5t40.5 -81q57 -72 159.5 -72t169.5 63t67 193q0 245 -223 245q-161 0 -215 -129q-19 -47 -16 -109.5z" />
<glyph unicode="7" d="M88 1167v248h999v-221q-303 -561 -473 -1194h-317q195 635 465 1167h-674z" />
<glyph unicode="8" d="M68 401q0 111 60.5 197t152.5 133q-178 100 -179 324q0 176 126 285q134 114 374 114q254 0 384 -112q118 -104 118 -289q0 -219 -178 -320q98 -47 157.5 -131t59.5 -201q0 -203 -135.5 -320.5t-404.5 -117.5t-402 118t-133 320zM348 401q0 -96 60.5 -153.5t197.5 -57.5 t197.5 59.5t60.5 153t-56 149.5t-202 56q-258 0 -258 -207zM373 1028.5q0 -92.5 54 -140.5t177 -48t175 50t52 139t-50 146.5t-177 57.5q-117 0 -179 -61q-52 -51 -52 -143.5z" />
<glyph unicode="9" d="M78 963q0 221 140 355q142 136 378 136q277 0 408 -215q106 -173 106 -442t-39 -428.5t-107.5 -249.5t-165 -123t-208.5 -33q-229 0 -348 96.5t-136 298.5h273q10 -76 53 -117.5t150 -41.5q135 0 190 107.5t57 314.5q-124 -132 -323 -132t-313.5 122t-114.5 352z M360 979.5q0 -116.5 52.5 -189.5t173.5 -73q158 0 214 136q38 95 0 216q-48 156 -206 156q-98 0 -166 -64.5t-68 -181z" />
<glyph unicode=":" horiz-adv-x="503" d="M106 0v330h293v-330h-293zM106 739v330h293v-330h-293z" />
<glyph unicode=";" horiz-adv-x="503" d="M63 -193l68 523h279l-127 -523h-220zM106 739v330h293v-330h-293z" />
<glyph unicode="&#x3c;" d="M150 582v225l937 410v-265l-606 -256l606 -256v-268z" />
<glyph unicode="=" d="M158 348v248h897v-248h-897zM158 801v248h897v-248h-897z" />
<glyph unicode="&#x3e;" d="M125 172v264l606 254l-606 258v269l938 -410v-225z" />
<glyph unicode="?" horiz-adv-x="1050" d="M20 1067q76 420 508 420q219 0 343 -100.5t124 -272.5q0 -165 -100 -270q-59 -63 -110.5 -113.5t-76.5 -84.5q-53 -74 -53 -148v-35h-282v47q0 137 121 264q34 35 66 66t55.5 54.5t42.5 51.5q38 57 38 135t-46 122t-137 44t-147.5 -47t-80.5 -166zM371 0v326h282v-326 h-282z" />
<glyph unicode="@" horiz-adv-x="2056" d="M102 420q0 327 166 572q144 212 386 326q218 103 423.5 103t365 -51t273.5 -150q244 -212 244 -585q0 -316 -156 -489q-137 -154 -336 -154q-111 0 -179 34.5t-91 125.5q-112 -175 -303 -175q-164 0 -259 116q-87 107 -87 282q0 254 134 425q131 167 339 167 q156 0 240 -133l18 110h256l-115 -665q-2 -10 -2 -27q0 -72 64 -72q108 0 180 110q82 125 82 349q0 296 -177 445q-168 141 -478 141q-154 0 -291 -56.5t-240.5 -160t-165 -251t-61.5 -312t41 -289.5t125 -218q177 -194 488 -194t450 162h264q-71 -151 -245 -249 q-196 -110 -435.5 -110t-405 64.5t-279.5 179.5q-233 235 -233 629zM821 401q0 -104 38 -153t95 -49t96.5 20.5t65.5 54.5q48 59 66 172l10 66q18 112 -3.5 159.5t-53 68t-79.5 20.5t-90 -22.5t-74 -66.5q-71 -98 -71 -270z" />
<glyph unicode="A" horiz-adv-x="1429" d="M20 0l549 1462h291l549 -1462h-328l-116 338h-512l-117 -338h-316zM530 590h355l-178 524z" />
<glyph unicode="B" horiz-adv-x="1325" d="M150 0v1462h526q439 0 519 -240q24 -71 24 -156t-37 -161t-140 -129q177 -94 206 -242q9 -45 9 -113.5t-27.5 -150.5t-91.5 -141q-142 -129 -427 -129h-561zM444 240h256q209 0 250 120q13 37 13 84q0 94 -51.5 143.5t-180.5 49.5h-287v-397zM444 883h267q121 0 166 45 t45 132t-58.5 125t-197.5 38h-222v-340z" />
<glyph unicode="C" horiz-adv-x="1460" d="M102 731q0 353 183 561q181 207 495 207q394 0 531 -293q43 -92 63 -207l-303 -38q-23 129 -87 202.5t-204 73.5q-176 0 -267 -132t-91 -375t97 -374t249.5 -131t219.5 73t83 208h328q-21 -242 -175 -388q-164 -155 -448 -155q-324 0 -503 211q-171 201 -171 557z" />
<glyph unicode="D" horiz-adv-x="1509" d="M150 0v1462h546q336 0 523.5 -182t187.5 -541q0 -356 -203 -551q-196 -188 -559 -188h-495zM455 260h196q335 0 416 282q25 87 25 194t-21.5 194.5t-68.5 147.5q-100 124 -306 124h-241v-942z" />
<glyph unicode="E" horiz-adv-x="1236" d="M150 0v1462h997v-260h-692v-319h651v-262h-651v-361h735l-31 -260h-1009z" />
<glyph unicode="F" horiz-adv-x="1196" d="M150 0v1462h960v-262h-655v-344h616v-262h-616v-594h-305z" />
<glyph unicode="G" horiz-adv-x="1486" d="M102 731q0 351 182 561q179 207 490 207q264 0 415 -131q131 -113 173 -319l-303 -39q-26 120 -80 168q-68 61 -205 61q-178 0 -266 -133t-88 -375q0 -508 366 -508q187 0 316 80v244h-279v254h561v-619q-113 -104 -268 -161.5t-325 -57.5t-300.5 55.5t-216.5 155.5 q-172 200 -172 557z" />
<glyph unicode="H" horiz-adv-x="1488" d="M150 0v1462h305v-565h579v565h305v-1462h-305v614h-579v-614h-305z" />
<glyph unicode="I" horiz-adv-x="604" d="M150 0v1462h305v-1462h-305z" />
<glyph unicode="J" horiz-adv-x="1302" d="M61 504h306q13 -145 64 -206q61 -73 190 -73t186 77t57 218v942h305v-960q0 -263 -148 -404q-143 -135 -403.5 -135t-402 131t-154.5 410z" />
<glyph unicode="K" horiz-adv-x="1382" d="M150 0v1462h307v-585l538 585h334l-485 -549l538 -913h-340l-411 715l-174 -178v-537h-307z" />
<glyph unicode="L" horiz-adv-x="1196" d="M150 0v1462h305v-1200h692l-33 -262h-964z" />
<glyph unicode="M" horiz-adv-x="1761" d="M150 0v1462h366l365 -1091l374 1091h357v-1462h-281v975l-334 -975h-237l-336 973v-973h-274z" />
<glyph unicode="N" horiz-adv-x="1472" d="M150 0v1462h274l602 -958v958h297v-1462h-272l-605 950v-950h-296z" />
<glyph unicode="O" horiz-adv-x="1597" d="M102 731q0 354 188 561q187 207 511 207q328 0 511 -206.5t183 -561.5q0 -358 -181 -561q-184 -207 -512 -207q-165 0 -294 53.5t-219 153.5q-187 208 -187 561zM418 730q0 -243 94 -374t287 -131t287 131t94 374t-94.5 375t-286.5 132q-193 0 -287 -132t-94 -375z" />
<glyph unicode="P" horiz-adv-x="1310" d="M150 0v1462h522q308 0 452 -138q115 -111 115 -318q0 -220 -115 -340q-141 -144 -444 -144h-229v-522h-301zM451 776h219q220 0 256 132q12 42 12 92t-12.5 89t-43.5 66q-62 55 -214 55h-217v-434z" />
<glyph unicode="Q" horiz-adv-x="1599" d="M102 731q0 354 188 561q187 207 511 207q328 0 511 -206.5t183 -564.5t-186 -556l178 -219l-184 -156l-187 230q-139 -63 -309 -63q-2 -1 -3 -1q-168 0 -296 53q-129 54 -219 154q-187 208 -187 561zM418 730q0 -243 95 -377t288 -134q87 0 145 23l-178 219l184 155 l166 -208q62 118 62 343q0 223 -94 354q-93 132 -285 132q-193 0 -288 -132t-95 -375z" />
<glyph unicode="R" horiz-adv-x="1337" d="M150 0v1462h518q316 0 458 -144q113 -115 113 -298q0 -141 -51 -237.5t-172 -161.5l297 -621h-330l-246 549h-286v-549h-301zM451 803h237q198 0 232 125q10 39 10 86q0 196 -268 196h-211v-407z" />
<glyph unicode="S" horiz-adv-x="1320" d="M57 477h310q10 -135 86.5 -196.5t226.5 -61.5q199 0 244 117q14 35 14 84t-43 99t-158 73l-190 35q-235 42 -343 138q-120 106 -120 308q0 204 158 317q152 109 409 109q292 0 439 -134q116 -107 139 -306l-289 -37q-23 121 -87.5 174t-195.5 53q-209 0 -251 -98 q-13 -29 -13 -59q0 -82 46 -123t157 -64l201 -39q238 -47 348 -152.5t110 -303.5t-142 -318q-151 -129 -438.5 -129t-446 128t-171.5 386z" />
<glyph unicode="T" horiz-adv-x="1269" d="M41 1198v264h1188v-264h-441v-1198h-307v1198h-440z" />
<glyph unicode="U" horiz-adv-x="1419" d="M121 598v864h305v-870q0 -186 65.5 -276.5t219.5 -90.5t218 90.5t64 276.5v870h305v-870q0 -480 -342 -593q-110 -36 -247 -36q-588 0 -588 635z" />
<glyph unicode="V" horiz-adv-x="1427" d="M20 1462h340l355 -1034l364 1034h328l-549 -1462h-289z" />
<glyph unicode="W" horiz-adv-x="1982" d="M20 1462h345l235 -1016l240 1008h323l250 -1008l221 1016h328l-397 -1462h-297l-273 1081l-264 -1081h-289z" />
<glyph unicode="X" horiz-adv-x="1400" d="M12 0l510 770l-475 692h348l301 -467l308 467h327l-467 -700l525 -762h-349l-354 532l-340 -532h-334z" />
<glyph unicode="Y" horiz-adv-x="1345" d="M20 1462h340l316 -592l325 592h324l-494 -866v-596h-305v596z" />
<glyph unicode="Z" horiz-adv-x="1202" d="M47 0v223l731 977h-717v262h1082v-225l-729 -975h762l-31 -262h-1098z" />
<glyph unicode="[" horiz-adv-x="684" d="M147 -254v1757h517v-246h-228v-1265h228v-246h-517z" />
<glyph unicode="\" horiz-adv-x="784" d="M12 1503h281l479 -1503h-280z" />
<glyph unicode="]" horiz-adv-x="684" d="M20 -8h228v1265h-228v246h517v-1757h-517v246z" />
<glyph unicode="^" d="M74 606l415 856h232l416 -856h-299l-234 514l-233 -514h-297z" />
<glyph unicode="_" horiz-adv-x="1024" d="M0 -252h1024v-106h-1024v106z" />
<glyph unicode="`" horiz-adv-x="847" d="M137 1534h326l246 -317h-265z" />
<glyph unicode="a" horiz-adv-x="1148" d="M61 293q0 287 357 344q100 16 203 20l137 7v53q0 98 -54.5 135t-128.5 37q-170 0 -194 -129l-262 24q29 168 147.5 243t319.5 75q348 0 422 -249q24 -79 24 -177v-676h-270v135q-63 -72 -142 -117t-177.5 -45t-163 18.5t-112.5 57.5q-106 86 -106 244zM348 294 q0 -44 37 -75t125 -31t158 52q88 65 88 182v55l-127 -6q-236 -10 -271 -105q-10 -28 -10 -72z" />
<glyph unicode="b" horiz-adv-x="1275" d="M127 0v1462h287v-522q121 162 335.5 162t325.5 -151.5t111 -415.5q0 -257 -124 -411q-127 -157 -330.5 -157t-325.5 152v-119h-279zM412 526q0 -195 73 -268q65 -59 168 -59q163 0 215 179q19 64 19 154q0 336 -228 336q-98 0 -167 -59q-80 -76 -80 -250v-33z" />
<glyph unicode="c" horiz-adv-x="1165" d="M90 532q0 258 140 413q141 157 391 157q310 0 411 -222q31 -69 41 -151l-289 -39q-10 82 -47 132t-127 50q-223 0 -223 -337.5t221 -337.5q170 0 189 190h290q-16 -193 -131.5 -306.5t-347.5 -113.5q-388 0 -487 335q-31 104 -31 230z" />
<glyph unicode="d" horiz-adv-x="1273" d="M90 539q0 250 123 406q124 157 326.5 157t320.5 -139v499h287v-1462h-279v141q-123 -174 -339.5 -174t-327.5 151.5t-111 420.5zM389 537q0 -92 17.5 -157t47.5 -104q58 -75 160 -75t168 59q80 80 80 250v37q0 190 -74 264q-59 59 -167 59q-162 0 -213 -178 q-19 -63 -19 -155z" />
<glyph unicode="e" horiz-adv-x="1206" d="M90 532q0 266 148 420q144 150 388.5 150t368 -141.5t123.5 -380.5v-115h-741q4 -129 65.5 -202t184.5 -73q170 0 200 144h279q-29 -180 -144.5 -273.5t-336.5 -93.5q-266 0 -400.5 147.5t-134.5 417.5zM381 653h461q0 234 -224 234q-162 0 -218 -143q-17 -42 -19 -91z " />
<glyph unicode="f" horiz-adv-x="776" d="M29 846v223h168v35q0 191 107 287q98 88 265 88q121 0 224 -31l-39 -209q-66 16 -123 16t-102.5 -31.5t-45.5 -113.5v-41h248v-223h-248v-846h-286v846h-168z" />
<glyph unicode="g" horiz-adv-x="1275" d="M90 567q0 238 123 385q126 150 333 150t324 -154v121h279v-919q0 -425 -273 -532q-98 -38 -232 -38t-225 21.5t-151 65.5q-112 83 -133 265h291q15 -77 64 -104q46 -25 137.5 -25t136.5 30t66 79q32 72 32 244v32q-107 -157 -327.5 -157t-332.5 145.5t-112 390.5z M391 569q0 -170 64.5 -240.5t160.5 -70.5q248 0 248 285v28q0 175 -78 247q-56 52 -163 52q-161 0 -213 -164q-19 -57 -19 -137z" />
<glyph unicode="h" d="M127 0v1462h287v-528q123 168 314 168t279.5 -95.5t88.5 -299.5v-707h-287v668q0 113 -43 153.5t-106 40.5q-106 0 -179 -63q-67 -67 -67 -156v-643h-287z" />
<glyph unicode="i" horiz-adv-x="544" d="M125 1204v258h295v-258h-295zM129 0v1069h287v-1069h-287z" />
<glyph unicode="j" horiz-adv-x="544" d="M-156 -344l41 215q66 -16 121 -16t89 25.5t34 109.5v1079h287v-1073q0 -197 -89 -286t-264 -89q-102 0 -219 35zM125 1204v258h295v-258h-295z" />
<glyph unicode="k" horiz-adv-x="1181" d="M127 0v1462h281v-766l411 373h332l-389 -369l420 -700h-310l-315 541l-149 -135v-406h-281z" />
<glyph unicode="l" horiz-adv-x="544" d="M129 0v1462h287v-1462h-287z" />
<glyph unicode="m" horiz-adv-x="1792" d="M127 0v1069h279v-143q115 176 307 176q232 0 295 -184q139 184 335 184q166 0 249 -91t83 -296v-715h-286v676q0 152 -81 178q-24 8 -59 8q-78 0 -141 -63q-64 -64 -64 -144v-655h-286v676q0 152 -80 178q-25 8 -60 8q-78 0 -141 -63t-63 -156v-643h-287z" />
<glyph unicode="n" d="M127 0v1069h279v-147q121 180 331 180q182 0 270.5 -95.5t88.5 -299.5v-707h-287v668q0 113 -43 153.5t-106 40.5q-106 0 -179 -63q-67 -67 -67 -156v-643h-287z" />
<glyph unicode="o" horiz-adv-x="1261" d="M90 537q0 264 146.5 414.5t394.5 150.5q249 0 396 -150q144 -148 144 -415q0 -266 -146 -418t-399 -152t-394.5 147.5t-141.5 422.5zM387 534.5q0 -337.5 243.5 -337.5t243.5 340q0 335 -243 335q-244 0 -244 -337.5z" />
<glyph unicode="p" horiz-adv-x="1275" d="M127 -397v1466h279v-141q123 174 340.5 174t328.5 -151.5t111 -415.5q0 -257 -124 -411q-127 -157 -341 -157q-80 0 -159 29t-148 115v-508h-287zM412 526q0 -195 73 -268q65 -59 168 -59q163 0 215 179q19 64 19 154q0 336 -228 336q-98 0 -167 -59q-80 -76 -80 -250 v-33z" />
<glyph unicode="q" horiz-adv-x="1275" d="M90 539q0 250 123 406q124 157 332 157t325 -154v121h279v-1466h-287v530q-55 -82 -143 -124t-180 -42q-227 0 -338 151.5t-111 420.5zM391 541q0 -264 137 -323q41 -17 88 -17q102 0 168 59q80 80 80 250v37q0 273 -154 312q-44 11 -89 11t-87 -18t-74 -57 q-69 -84 -69 -254z" />
<glyph unicode="r" horiz-adv-x="858" d="M127 0v1069h279v-149q105 167 288 167q62 0 115 -10l-35 -260q-49 12 -108 12q-182 0 -235 -127q-17 -40 -17 -84v-618h-287z" />
<glyph unicode="s" horiz-adv-x="1099" d="M59 340h275q14 -94 75.5 -123t155.5 -29t138.5 26t44.5 75t-28 79.5t-106 43.5l-147 24q-195 31 -290 105.5t-95 226.5q0 153 129 244q128 90 334 90q343 0 435 -196q28 -60 40 -128l-256 -33q-18 74 -64.5 109t-126 35t-117.5 -9.5t-60 -23.5q-40 -26 -40 -72.5t32 -70 t124 -39.5l135 -23q216 -34 304 -117q79 -75 79 -230t-114.5 -246t-354.5 -91q-333 0 -451 193q-44 71 -51 180z" />
<glyph unicode="t" horiz-adv-x="776" d="M25 846v223h168v285h286v-285h246v-223h-246v-494q0 -84 35 -113.5t95.5 -29.5t111.5 14l41 -211q-105 -32 -223 -32q-176 0 -261 83.5t-85 282.5v500h-168z" />
<glyph unicode="u" horiz-adv-x="1202" d="M117 362v707h286v-668q0 -115 41 -154.5t104.5 -39.5t99.5 16.5t69 46.5q71 63 71 156v643h287v-1069h-278v147q-126 -180 -317 -180t-277 95.5t-86 299.5z" />
<glyph unicode="v" horiz-adv-x="1161" d="M16 1069h332l240 -743l239 743h318l-422 -1069h-287z" />
<glyph unicode="w" horiz-adv-x="1583" d="M12 1069h312l149 -709l205 701h250l194 -701l150 709h299l-311 -1069h-279l-190 705l-193 -705h-274z" />
<glyph unicode="x" horiz-adv-x="1120" d="M16 0l387 549l-350 520h338l182 -305l205 305h299l-346 -504l373 -565h-332l-217 348l-227 -348h-312z" />
<glyph unicode="y" horiz-adv-x="1161" d="M16 1069h332l250 -702l233 702h314l-432 -1100q-37 -92 -70 -160.5t-75 -114.5q-83 -91 -244 -91q-114 0 -215 32l47 213q59 -16 118 -16t94 27.5t60 97.5l33 90z" />
<glyph unicode="z" horiz-adv-x="1024" d="M76 0v195l520 651h-510v223h875v-195l-519 -651h543l-27 -223h-882z" />
<glyph unicode="{" horiz-adv-x="681" d="M45 506v237h18q66 0 98 39t32 105v313q0 154 81.5 228.5t212.5 74.5h185v-239h-92q-119 0 -119 -97v-344q0 -150 -129 -198q129 -49 129 -199v-344q0 -96 119 -96h92v-240h-185q-131 0 -212.5 75t-81.5 228v313q0 66 -32 105t-98 39h-18z" />
<glyph unicode="|" horiz-adv-x="565" d="M147 -254v1757h271v-1757h-271z" />
<glyph unicode="}" horiz-adv-x="681" d="M10 -14h92q119 0 119 96v344q0 151 133 199q-133 48 -133 198v344q0 97 -119 97h-92v239h185q133 0 213.5 -74.5t80.5 -228.5v-313q0 -66 34 -105t95 -39h19v-237h-19q-61 0 -95 -39t-34 -105v-313q0 -154 -80.5 -228.5t-213.5 -74.5h-185v240z" />
<glyph unicode="~" d="M61 463q0 225 80 327.5t254 102.5q66 0 119 -23.5t99 -51t86 -50.5t81 -23q113 0 113 144h256q0 -223 -79 -326.5t-253 -103.5q-96 0 -218 75q-46 29 -87 52.5t-80 23.5q-113 0 -113 -147h-258z" />
<glyph unicode="&#xa1;" horiz-adv-x="561" d="M127 -397l20 1003h267l20 -1003h-307zM139 743v326h283v-326h-283z" />
<glyph unicode="&#xa2;" d="M121 723q0 232 115 379q120 153 327 176v195h133v-191q278 -17 371 -228q29 -65 39 -143l-285 -43q-18 149 -125 179v-641q119 27 131 184h291q-16 -180 -116.5 -292t-305.5 -126v-192h-133v194q-221 19 -337 172q-105 139 -105 377zM412 729q0 -272 151 -319v632 q-151 -47 -151 -313z" />
<glyph unicode="&#xa3;" d="M109 602v223h129q-19 111 -19 200t37 176t100 143q121 110 316 110q329 0 414 -226q24 -65 34 -134l-243 -37q-18 76 -57.5 119t-137.5 43t-147.5 -58.5t-49.5 -144.5t7.5 -120t11.5 -71h430v-223h-399q2 -18 2 -38v-38q0 -165 -84 -280h700l-33 -246h-966l2 203 q61 72 88.5 142.5t27.5 141.5t-6 115h-157z" />
<glyph unicode="&#xa4;" d="M86 272l123 125q-78 129 -78 287t78 293l-123 123l172 166l127 -140q105 58 221 58t221 -58l127 140l170 -166l-120 -123q77 -131 77 -289t-77 -291l120 -125l-170 -163l-127 137q-110 -56 -221 -56t-221 56l-127 -137zM365 686q0 -212 129 -276q46 -23 112 -23 q184 0 228 179q14 55 14 120q0 215 -130 278q-46 23 -112 23q-241 0 -241 -301z" />
<glyph unicode="&#xa5;" d="M23 1415h301l288 -586l293 586h285l-322 -600h226v-199h-344v-141h344v-199h-344v-276h-281v276h-344v199h344v141h-344v199h221z" />
<glyph unicode="&#xa6;" horiz-adv-x="565" d="M147 -254v723h271v-723h-271zM147 815v688h271v-688h-271z" />
<glyph unicode="&#xa7;" horiz-adv-x="1142" d="M74 174h282q22 -162 140 -186q39 -8 90 -8q192 0 192 118q0 41 -24.5 79t-116.5 61l-201 47q-192 50 -267 131q-73 78 -73 233.5t172 245.5q-168 84 -168 276q0 151 132 240q129 88 348 88q338 0 440 -205q29 -59 43 -118l-258 -62q-29 90 -76 121q-55 37 -157.5 37 t-145.5 -34t-43 -81q0 -46 19 -67q33 -38 120 -60l219 -55q172 -45 247 -121t75 -183t-39 -178t-137 -122q80 -43 124 -106.5t44 -159t-33 -160t-94 -107.5q-120 -86 -332 -86q-233 0 -358 89q-141 100 -164 333zM336 655q0 -57 20 -86q42 -57 136 -80l79 -18q32 -8 71.5 -8 t70 7t55.5 24q53 38 53 114q0 57 -21 85q-45 58 -134 79l-105 27q-32 8 -82.5 8t-96.5 -36t-46 -116z" />
<glyph unicode="&#xa8;" horiz-adv-x="847" d="M84 1245v256h266v-256h-266zM498 1245v256h266v-256h-266z" />
<glyph unicode="&#xa9;" horiz-adv-x="1591" d="M92 731q0 324 206 531q198 200 499 200q312 0 505 -200q195 -200 195 -531q0 -328 -203 -531q-200 -200 -502 -200q-151 0 -281 52t-223 148q-196 201 -196 531zM256 731q0 -265 152 -426q148 -158 388 -158q118 0 216 41t170 117q151 161 151 426q0 263 -151 424 q-149 158 -385 158q-241 0 -389 -158q-152 -161 -152 -424zM414 729q0 189 104 301q108 117 281.5 117t256.5 -78t97 -201l-215 -34q-24 141 -135 141q-91 0 -135 -75q-35 -62 -35 -167q0 -246 168 -246q129 0 141 144h221q-12 -145 -100 -230.5t-262 -85.5q-192 0 -294 117 q-93 107 -93 297z" />
<glyph unicode="&#xaa;" horiz-adv-x="872" d="M59 892.5q0 98.5 37 150t96 81.5q98 50 287 60l94 4v24q0 72 -37.5 98.5t-95.5 26.5q-122 0 -141 -92l-199 19q25 123 111 179t209 56t186.5 -21.5t102.5 -61.5q73 -75 73 -226v-498h-204v96q-47 -53 -104.5 -84.5t-131 -31.5t-122 14t-84.5 44q-77 64 -77 162.5z M274 915q0 -80 103 -79q82 0 131 36q66 45 65 134v38l-88 -4q-131 -7 -163.5 -31t-40 -45.5t-7.5 -48.5z" />
<glyph unicode="&#xab;" horiz-adv-x="1120" d="M72 528l262 459h287l-238 -457l238 -469h-291zM532 528l261 459h286l-237 -457l237 -469h-291z" />
<glyph unicode="&#xac;" d="M147 655v248h897v-553h-256v305h-641z" />
<glyph unicode="&#xad;" horiz-adv-x="798" d="M92 471v283h613v-283h-613z" />
<glyph unicode="&#xae;" horiz-adv-x="1001" d="M61 1049q0 203 127 329q124 121 312 121q200 0 320 -121q120 -123 120 -329t-127 -331q-121 -120 -316 -120q-95 0 -176 30.5t-139 89.5q-121 123 -121 331zM178 1049q0 -170 88.5 -260.5t233.5 -90.5t234 90.5t89 260.5t-89 260t-234 90t-233.5 -90t-88.5 -260zM324 840 v434h168q160 0 185 -84q7 -23 7 -58q0 -75 -70 -114l93 -178h-123l-74 153h-78v-153h-108zM432 1081h70q43 0 56 15.5t13 40.5t-17 38t-65 13h-57v-107z" />
<glyph unicode="&#xaf;" horiz-adv-x="847" d="M125 1253v220h598v-220h-598z" />
<glyph unicode="&#xb0;" horiz-adv-x="720" d="M61 1158q0 62 22.5 116.5t62.5 94.5q85 85 216 85q132 0 214 -85q83 -87 83 -210q0 -127 -83 -214q-82 -85 -214 -85q-131 0 -216 85t-85 213zM236 1158.5q0 -60.5 33.5 -96.5t90.5 -36t91 36t34 96t-33.5 96t-91 36t-91 -35.5t-33.5 -96z" />
<glyph unicode="&#xb1;" d="M119 573v248h358v389h258v-389h359v-248h-359v-325h320v-248h-897v248h319v325h-358z" />
<glyph unicode="&#xb2;" horiz-adv-x="843" d="M80 1161q28 135 100 203q90 86 244.5 86t232.5 -70.5t78 -193.5q0 -84 -29 -132q-80 -130 -196 -218q-39 -29 -80 -64h315l-22 -182h-610v151q27 25 73.5 61t116.5 96t105.5 92t59.5 62q46 56 46 112q0 106 -94 106q-53 0 -85 -28t-46 -107z" />
<glyph unicode="&#xb3;" horiz-adv-x="843" d="M106 862h193q15 -143 139 -143q57 0 94 23.5t37 80.5q0 107 -129 107h-86v164h88q55 0 84 27.5t29 70.5q0 94 -117 94q-53 0 -88 -25.5t-47 -97.5l-192 27q23 115 99.5 187.5t235 72.5t232.5 -68.5t74 -175.5t-113 -182q66 -27 98.5 -80t32.5 -110q0 -125 -76 -202 t-250 -77q-173 0 -262 98q-69 76 -76 209z" />
<glyph unicode="&#xb4;" horiz-adv-x="847" d="M137 1217l246 317h326l-308 -317h-264z" />
<glyph unicode="&#xb5;" horiz-adv-x="1202" d="M117 -397v1466h286v-668q0 -115 41 -154.5t104.5 -39.5t99.5 16.5t69 46.5q71 63 71 156v643h287v-1069h-278v147q-99 -172 -256 -172q-92 0 -138 52v-424h-286z" />
<glyph unicode="&#xb6;" horiz-adv-x="1341" d="M31 997q0 329 323 429q119 36 295 36h559v-1747h-270v1514h-176v-1514h-270v822q-241 19 -358 155q-103 119 -103 305z" />
<glyph unicode="&#xb7;" horiz-adv-x="503" d="M106 598v330h293v-330h-293z" />
<glyph unicode="&#xb8;" horiz-adv-x="847" d="M207 -291q79 -12 158 -12t79 57q0 29 -24.5 43.5t-89.5 14.5h-74l80 204h158l-41 -112q151 -22 178 -116q8 -28 8 -56q0 -176 -283 -176q-76 0 -149 12v141z" />
<glyph unicode="&#xb9;" horiz-adv-x="843" d="M86 1253l289 162h200v-825h-217v616l-190 -102z" />
<glyph unicode="&#xba;" horiz-adv-x="862" d="M27 1077.5q0 200.5 110.5 311t294.5 110.5t294 -110.5t110 -309.5q0 -195 -113 -310q-110 -112 -295.5 -112t-293 110t-107.5 310.5zM254 1078.5q0 -236.5 177 -236.5t177 237q0 236 -177 236t-177 -236.5z" />
<glyph unicode="&#xbb;" horiz-adv-x="1120" d="M41 61l238 459l-238 467h293l256 -465l-260 -461h-289zM500 61l239 459l-239 467h293l256 -465l-261 -461h-288z" />
<glyph unicode="&#xbc;" horiz-adv-x="1918" d="M37 1253l289 162h200v-825h-217v616l-190 -102zM424 0l713 1415h276l-712 -1415h-277zM1126 178v129l400 531h188v-496h107l-21 -164h-86v-166h-194v166h-394zM1331 342h189v254z" />
<glyph unicode="&#xbd;" horiz-adv-x="1918" d="M37 1253l289 162h200v-825h-217v616l-190 -102zM364 0l713 1415h276l-712 -1415h-277zM1135 583q28 135 100 203q90 86 244.5 86t232.5 -70.5t78 -193.5q0 -84 -29 -132q-80 -130 -196 -218q-39 -29 -80 -64h315l-22 -182h-610v151q27 25 73.5 61t116.5 96t105.5 92 t59.5 62q46 56 46 112q0 106 -94 106q-53 0 -85 -28t-46 -107z" />
<glyph unicode="&#xbe;" horiz-adv-x="1918" d="M106 862h193q15 -143 139 -143q57 0 94 23.5t37 80.5q0 107 -129 107h-86v164h88q55 0 84 27.5t29 70.5q0 94 -117 94q-53 0 -88 -25.5t-47 -97.5l-192 27q23 115 99.5 187.5t235 72.5t232.5 -68.5t74 -175.5t-113 -182q66 -27 98.5 -80t32.5 -110q0 -125 -76 -202 t-250 -77q-173 0 -262 98q-69 76 -76 209zM522 0l713 1415h276l-712 -1415h-277zM1126 178v129l400 531h188v-496h107l-21 -164h-86v-166h-194v166h-394zM1331 342h189v254z" />
<glyph unicode="&#xbf;" horiz-adv-x="1021" d="M4 -45q0 163 100 271q29 30 63 64l67 66q110 111 110 215v35h283v-47q0 -138 -122 -264q-34 -35 -66 -66t-55.5 -54t-41.5 -51q-39 -61 -39 -137.5t46 -120.5t137 -44t147.5 47t81.5 166l264 -33q-76 -420 -508 -420q-219 0 -343 100.5t-124 272.5zM346 743v326h283v-326 h-283z" />
<glyph unicode="&#xc0;" horiz-adv-x="1429" d="M20 0l549 1462h291l549 -1462h-328l-116 338h-512l-117 -338h-316zM313 1878h332l262 -297h-268zM530 590h355l-178 524z" />
<glyph unicode="&#xc1;" horiz-adv-x="1429" d="M20 0l549 1462h291l549 -1462h-328l-116 338h-512l-117 -338h-316zM520 1581l262 297h332l-326 -297h-268zM530 590h355l-178 524z" />
<glyph unicode="&#xc2;" horiz-adv-x="1429" d="M20 0l549 1462h291l549 -1462h-328l-116 338h-512l-117 -338h-316zM320 1581l248 297h288l248 -297h-246l-147 148l-146 -148h-245zM530 590h355l-178 524z" />
<glyph unicode="&#xc3;" horiz-adv-x="1429" d="M20 0l549 1462h291l549 -1462h-328l-116 338h-512l-117 -338h-316zM309 1583q0 154 69 222.5t185 68.5q59 0 119 -31t89.5 -45t63.5 -14t55.5 16.5t21.5 65.5h202q0 -154 -67.5 -221.5t-184.5 -67.5q-63 0 -120.5 31.5t-86 46t-63.5 14.5q-80 0 -80 -86h-203zM530 590 h355l-178 524z" />
<glyph unicode="&#xc4;" horiz-adv-x="1429" d="M20 0l549 1462h291l549 -1462h-328l-116 338h-512l-117 -338h-316zM363 1602v264h274v-264h-274zM530 590h355l-178 524zM789 1602v264h274v-264h-274z" />
<glyph unicode="&#xc5;" horiz-adv-x="1429" d="M20 0l537 1432q-92 65 -92 196q0 177 151 228q46 16 95 16q103 0 173 -60q74 -65 74 -190t-90 -186l541 -1436h-328l-116 338h-512l-117 -338h-316zM530 590h355l-178 524zM618 1630.5q0 -98.5 93.5 -98.5t93.5 98.5t-93.5 98.5t-93.5 -98.5z" />
<glyph unicode="&#xc6;" horiz-adv-x="2154" d="M0 0l850 1462h1214v-260h-649v-319h610v-262h-610v-361h692l-30 -260h-957v438h-536l-242 -438h-342zM723 690h397v512h-114z" />
<glyph unicode="&#xc7;" horiz-adv-x="1460" d="M102 731q0 353 183 561q181 207 495 207q394 0 531 -293q43 -92 63 -207l-303 -38q-23 129 -87 202.5t-204 73.5q-176 0 -267 -132t-91 -375t97 -374t249.5 -131t219.5 73t83 208h328q-21 -231 -163 -375q-148 -151 -407 -166l-24 -69q196 -20 196 -175q0 -178 -294 -178 q-77 0 -154 13v143q77 -14 161.5 -14t84.5 61q0 29 -25.5 43t-93.5 14h-76l66 166q-272 31 -424 240q-144 197 -144 522z" />
<glyph unicode="&#xc8;" horiz-adv-x="1236" d="M150 0v1462h997v-260h-692v-319h651v-262h-651v-361h735l-31 -260h-1009zM281 1878h332l262 -297h-268z" />
<glyph unicode="&#xc9;" horiz-adv-x="1236" d="M150 0v1462h997v-260h-692v-319h651v-262h-651v-361h735l-31 -260h-1009zM446 1581l262 297h332l-326 -297h-268z" />
<glyph unicode="&#xca;" horiz-adv-x="1236" d="M150 0v1462h997v-260h-692v-319h651v-262h-651v-361h735l-31 -260h-1009zM258 1581l248 297h288l248 -297h-246l-147 148l-146 -148h-245z" />
<glyph unicode="&#xcb;" horiz-adv-x="1236" d="M150 0v1462h997v-260h-692v-319h651v-262h-651v-361h735l-31 -260h-1009zM301 1602v264h274v-264h-274zM727 1602v264h274v-264h-274z" />
<glyph unicode="&#xcc;" horiz-adv-x="604" d="M-74 1878h332l262 -297h-268zM150 0v1462h305v-1462h-305z" />
<glyph unicode="&#xcd;" horiz-adv-x="604" d="M113 1581l262 297h332l-326 -297h-268zM150 0v1462h305v-1462h-305z" />
<glyph unicode="&#xce;" horiz-adv-x="604" d="M-78 1581l248 297h288l248 -297h-246l-147 148l-146 -148h-245zM150 0v1462h305v-1462h-305z" />
<glyph unicode="&#xcf;" horiz-adv-x="604" d="M-35 1602v264h274v-264h-274zM150 0v1462h305v-1462h-305zM391 1602v264h274v-264h-274z" />
<glyph unicode="&#xd0;" horiz-adv-x="1546" d="M20 629v252h166v581h547q336 0 523.5 -182t187.5 -541q0 -355 -203 -551q-195 -188 -559 -188h-496v629h-166zM492 260h196q440 0 440 477q0 340 -212 433q-74 32 -183 32h-241v-321h311v-252h-311v-369z" />
<glyph unicode="&#xd1;" horiz-adv-x="1472" d="M150 0v1462h274l602 -958v958h297v-1462h-272l-605 950v-950h-296zM325 1583q0 154 69 222.5t185 68.5q59 0 119 -31t89.5 -45t63.5 -14t55.5 16.5t21.5 65.5h202q0 -154 -67.5 -221.5t-184.5 -67.5q-63 0 -120.5 31.5t-86 46t-63.5 14.5q-80 0 -80 -86h-203z" />
<glyph unicode="&#xd2;" horiz-adv-x="1597" d="M102 731q0 354 188 561q187 207 511 207q328 0 511 -206.5t183 -561.5q0 -358 -181 -561q-184 -207 -512 -207q-165 0 -294 53.5t-219 153.5q-187 208 -187 561zM418 730q0 -243 94 -374t287 -131t287 131t94 374t-94.5 375t-286.5 132q-193 0 -287 -132t-94 -375z M440 1878h332l262 -297h-268z" />
<glyph unicode="&#xd3;" horiz-adv-x="1597" d="M102 731q0 354 188 561q187 207 511 207q328 0 511 -206.5t183 -561.5q0 -358 -181 -561q-184 -207 -512 -207q-165 0 -294 53.5t-219 153.5q-187 208 -187 561zM418 730q0 -243 94 -374t287 -131t287 131t94 374t-94.5 375t-286.5 132q-193 0 -287 -132t-94 -375z M584 1581l262 297h332l-326 -297h-268z" />
<glyph unicode="&#xd4;" horiz-adv-x="1597" d="M102 731q0 354 188 561q187 207 511 207q328 0 511 -206.5t183 -561.5q0 -358 -181 -561q-184 -207 -512 -207q-165 0 -294 53.5t-219 153.5q-187 208 -187 561zM406 1581l248 297h288l248 -297h-246l-147 148l-146 -148h-245zM418 730q0 -243 94 -374t287 -131t287 131 t94 374t-94.5 375t-286.5 132q-193 0 -287 -132t-94 -375z" />
<glyph unicode="&#xd5;" horiz-adv-x="1597" d="M102 731q0 354 188 561q187 207 511 207q328 0 511 -206.5t183 -561.5q0 -358 -181 -561q-184 -207 -512 -207q-165 0 -294 53.5t-219 153.5q-187 208 -187 561zM395 1583q0 154 69 222.5t185 68.5q59 0 119 -31t89.5 -45t63.5 -14t55.5 16.5t21.5 65.5h202 q0 -154 -67.5 -221.5t-184.5 -67.5q-63 0 -120.5 31.5t-86 46t-63.5 14.5q-80 0 -80 -86h-203zM418 730q0 -243 94 -374t287 -131t287 131t94 374t-94.5 375t-286.5 132q-193 0 -287 -132t-94 -375z" />
<glyph unicode="&#xd6;" horiz-adv-x="1597" d="M102 731q0 354 188 561q187 207 511 207q328 0 511 -206.5t183 -561.5q0 -358 -181 -561q-184 -207 -512 -207q-165 0 -294 53.5t-219 153.5q-187 208 -187 561zM418 730q0 -243 94 -374t287 -131t287 131t94 374t-94.5 375t-286.5 132q-193 0 -287 -132t-94 -375z M449 1602v264h274v-264h-274zM875 1602v264h274v-264h-274z" />
<glyph unicode="&#xd7;" d="M145 410l285 286l-285 289l174 174l287 -287l287 287l174 -174l-285 -289l285 -286l-174 -174l-287 286l-287 -286z" />
<glyph unicode="&#xd8;" horiz-adv-x="1597" d="M102 731q0 354 188 561q187 207 511 207q190 0 336 -76l104 158l137 -90l-106 -160q223 -205 223 -600q0 -358 -181 -561q-184 -207 -534 -207q-187 0 -350 90l-115 -172l-137 90l121 185q-197 205 -197 575zM418 757q0 -216 57 -337l510 772q-84 45 -186 45 q-193 0 -287 -132t-94 -348zM584 287q86 -61 215 -62q193 0 287 131t94 361.5t-76 357.5z" />
<glyph unicode="&#xd9;" horiz-adv-x="1419" d="M121 598v864h305v-870q0 -186 65.5 -276.5t219.5 -90.5t218 90.5t64 276.5v870h305v-870q0 -480 -342 -593q-110 -36 -247 -36q-588 0 -588 635zM330 1878h332l262 -297h-268z" />
<glyph unicode="&#xda;" horiz-adv-x="1419" d="M121 598v864h305v-870q0 -186 65.5 -276.5t219.5 -90.5t218 90.5t64 276.5v870h305v-870q0 -480 -342 -593q-110 -36 -247 -36q-588 0 -588 635zM516 1581l262 297h332l-326 -297h-268z" />
<glyph unicode="&#xdb;" horiz-adv-x="1419" d="M121 598v864h305v-870q0 -186 65.5 -276.5t219.5 -90.5t218 90.5t64 276.5v870h305v-870q0 -480 -342 -593q-110 -36 -247 -36q-588 0 -588 635zM316 1581l248 297h288l248 -297h-246l-147 148l-146 -148h-245z" />
<glyph unicode="&#xdc;" horiz-adv-x="1419" d="M121 598v864h305v-870q0 -186 65.5 -276.5t219.5 -90.5t218 90.5t64 276.5v870h305v-870q0 -480 -342 -593q-110 -36 -247 -36q-588 0 -588 635zM359 1602v264h274v-264h-274zM785 1602v264h274v-264h-274z" />
<glyph unicode="&#xdd;" horiz-adv-x="1345" d="M20 1462h340l316 -592l325 592h324l-494 -866v-596h-305v596zM487 1581l262 297h332l-326 -297h-268z" />
<glyph unicode="&#xde;" horiz-adv-x="1310" d="M150 0v1462h301v-252h221q310 0 452 -138q115 -111 115 -318q0 -220 -115 -340q-141 -144 -444 -144h-229v-270h-301zM451 524h219q220 0 256 132q12 42 12 92.5t-12.5 89.5t-43.5 66q-62 54 -214 54h-217v-434z" />
<glyph unicode="&#xdf;" horiz-adv-x="1236" d="M127 0v1026q0 209 129 332q126 121 340.5 121t340.5 -91.5t126 -277.5q0 -102 -40 -173t-126 -124q141 -43 206.5 -140.5t65.5 -254.5q0 -300 -237 -400q-84 -36 -170 -36q-156 0 -254 30l41 211q70 -18 133 -18q117 0 163 57t46 179t-71.5 169t-219.5 47h-61v220h65 q182 0 182 202q0 183 -182 183q-205 0 -205 -265v-997h-272z" />
<glyph unicode="&#xe0;" horiz-adv-x="1148" d="M61 293q0 287 357 344q100 16 203 20l137 7v53q0 98 -54.5 135t-128.5 37q-170 0 -194 -129l-262 24q29 168 147.5 243t319.5 75q348 0 422 -249q24 -79 24 -177v-676h-270v135q-63 -72 -142 -117t-177.5 -45t-163 18.5t-112.5 57.5q-106 86 -106 244zM229 1534h326 l246 -317h-265zM348 294q0 -44 37 -75t125 -31t158 52q88 65 88 182v55l-127 -6q-236 -10 -271 -105q-10 -28 -10 -72z" />
<glyph unicode="&#xe1;" horiz-adv-x="1148" d="M61 293q0 287 357 344q100 16 203 20l137 7v53q0 98 -54.5 135t-128.5 37q-170 0 -194 -129l-262 24q29 168 147.5 243t319.5 75q348 0 422 -249q24 -79 24 -177v-676h-270v135q-63 -72 -142 -117t-177.5 -45t-163 18.5t-112.5 57.5q-106 86 -106 244zM348 294 q0 -44 37 -75t125 -31t158 52q88 65 88 182v55l-127 -6q-236 -10 -271 -105q-10 -28 -10 -72zM385 1217l246 317h326l-308 -317h-264z" />
<glyph unicode="&#xe2;" horiz-adv-x="1148" d="M61 293q0 287 357 344q100 16 203 20l137 7v53q0 98 -54.5 135t-128.5 37q-170 0 -194 -129l-262 24q29 168 147.5 243t319.5 75q348 0 422 -249q24 -79 24 -177v-676h-270v135q-63 -72 -142 -117t-177.5 -45t-163 18.5t-112.5 57.5q-106 86 -106 244zM178 1217l246 317 h288l246 -317h-246l-145 169l-143 -169h-246zM348 294q0 -44 37 -75t125 -31t158 52q88 65 88 182v55l-127 -6q-236 -10 -271 -105q-10 -28 -10 -72z" />
<glyph unicode="&#xe3;" horiz-adv-x="1148" d="M61 293q0 287 357 344q100 16 203 20l137 7v53q0 98 -54.5 135t-128.5 37q-170 0 -194 -129l-262 24q29 168 147.5 243t319.5 75q348 0 422 -249q24 -79 24 -177v-676h-270v135q-63 -72 -142 -117t-177.5 -45t-163 18.5t-112.5 57.5q-106 86 -106 244zM183 1233 q0 154 65.5 222.5t177.5 68.5q57 0 117 -31t89.5 -45t62.5 -14t54.5 16t21.5 66h192q0 -154 -65.5 -221.5t-176.5 -67.5q-59 0 -118.5 31.5t-88 46t-61.5 14.5q-78 0 -78 -86h-192zM348 294q0 -44 37 -75t125 -31t158 52q88 65 88 182v55l-127 -6q-236 -10 -271 -105 q-10 -28 -10 -72z" />
<glyph unicode="&#xe4;" horiz-adv-x="1148" d="M61 293q0 287 357 344q100 16 203 20l137 7v53q0 98 -54.5 135t-128.5 37q-170 0 -194 -129l-262 24q29 168 147.5 243t319.5 75q348 0 422 -249q24 -79 24 -177v-676h-270v135q-63 -72 -142 -117t-177.5 -45t-163 18.5t-112.5 57.5q-106 86 -106 244zM234 1245v256h266 v-256h-266zM348 294q0 -44 37 -75t125 -31t158 52q88 65 88 182v55l-127 -6q-236 -10 -271 -105q-10 -28 -10 -72zM648 1245v256h266v-256h-266z" />
<glyph unicode="&#xe5;" horiz-adv-x="1148" d="M61 293q0 287 357 344q100 16 203 20l137 7v53q0 98 -54.5 135t-128.5 37q-170 0 -194 -129l-262 24q29 168 147.5 243t319.5 75q348 0 422 -249q24 -79 24 -177v-676h-270v135q-63 -72 -142 -117t-177.5 -45t-163 18.5t-112.5 57.5q-106 86 -106 244zM336 1435 q0 58 19.5 102t51.5 73q65 57 165 57q99 0 166 -57q71 -62 71 -174q0 -166 -147 -216q-43 -14 -90 -14q-99 0 -165 56q-71 62 -71 173zM348 294q0 -44 37 -75t125 -31t158 52q88 65 88 182v55l-127 -6q-236 -10 -271 -105q-10 -28 -10 -72zM484 1436q0 -47 23.5 -71 t64.5 -24t65.5 24t24.5 71q0 94 -90 94q-88 0 -88 -94z" />
<glyph unicode="&#xe6;" horiz-adv-x="1837" d="M61 306.5q0 97.5 48.5 167t126.5 108.5q129 65 372 75l137 7v53q0 172 -176 172q-164 0 -188 -129l-262 24q29 168 146.5 243t314.5 75q115 0 197.5 -37t142.5 -131q74 96 159.5 132t182.5 36q242 0 364.5 -141.5t122.5 -380.5v-115h-729q4 -129 64.5 -202t179.5 -73 q164 0 194 144h279q-29 -180 -143.5 -273.5t-331.5 -93.5q-121 0 -231.5 45t-174.5 162q-61 -86 -155.5 -143.5t-249.5 -57.5q-277 0 -361 175q-29 61 -29 158.5zM348 294q0 -44 36 -75t94 -31q170 0 240 124q25 44 25 110v55l-127 -6q-227 -10 -258 -105q-10 -28 -10 -72z M1024 653h449q0 234 -218 234q-111 0 -168 -67.5t-63 -166.5z" />
<glyph unicode="&#xe7;" horiz-adv-x="1165" d="M90 532q0 258 140 413q141 157 391 157q310 0 411 -222q31 -69 41 -151l-289 -39q-10 82 -47 132t-127 50q-223 0 -223 -337.5t221 -337.5q170 0 189 190h290q-16 -182 -120.5 -294.5t-315.5 -123.5l-22 -65q151 -22 178 -116q8 -28 8 -56q0 -176 -283 -176 q-76 0 -149 12v141q79 -12 158 -12t80 57q0 58 -115 58h-74l64 163q-211 33 -308.5 181.5t-97.5 375.5z" />
<glyph unicode="&#xe8;" horiz-adv-x="1206" d="M90 532q0 266 148 420q144 150 388.5 150t368 -141.5t123.5 -380.5v-115h-741q4 -129 65.5 -202t184.5 -73q170 0 200 144h279q-29 -180 -144.5 -273.5t-336.5 -93.5q-266 0 -400.5 147.5t-134.5 417.5zM262 1534h326l246 -317h-265zM381 653h461q0 234 -224 234 q-162 0 -218 -143q-17 -42 -19 -91z" />
<glyph unicode="&#xe9;" horiz-adv-x="1206" d="M90 532q0 266 148 420q144 150 388.5 150t368 -141.5t123.5 -380.5v-115h-741q4 -129 65.5 -202t184.5 -73q170 0 200 144h279q-29 -180 -144.5 -273.5t-336.5 -93.5q-266 0 -400.5 147.5t-134.5 417.5zM381 653h461q0 234 -224 234q-162 0 -218 -143q-17 -42 -19 -91z M420 1217l246 317h326l-308 -317h-264z" />
<glyph unicode="&#xea;" horiz-adv-x="1206" d="M90 532q0 266 148 420q144 150 388.5 150t368 -141.5t123.5 -380.5v-115h-741q4 -129 65.5 -202t184.5 -73q170 0 200 144h279q-29 -180 -144.5 -273.5t-336.5 -93.5q-266 0 -400.5 147.5t-134.5 417.5zM232 1217l246 317h288l246 -317h-246l-145 169l-143 -169h-246z M381 653h461q0 234 -224 234q-162 0 -218 -143q-17 -42 -19 -91z" />
<glyph unicode="&#xeb;" horiz-adv-x="1206" d="M90 532q0 266 148 420q144 150 388.5 150t368 -141.5t123.5 -380.5v-115h-741q4 -129 65.5 -202t184.5 -73q170 0 200 144h279q-29 -180 -144.5 -273.5t-336.5 -93.5q-266 0 -400.5 147.5t-134.5 417.5zM283 1245v256h266v-256h-266zM381 653h461q0 234 -224 234 q-162 0 -218 -143q-17 -42 -19 -91zM697 1245v256h266v-256h-266z" />
<glyph unicode="&#xec;" horiz-adv-x="544" d="M-107 1534h326l246 -317h-265zM129 0v1069h287v-1069h-287z" />
<glyph unicode="&#xed;" horiz-adv-x="544" d="M110 1217l246 317h326l-308 -317h-264zM129 0v1069h287v-1069h-287z" />
<glyph unicode="&#xee;" horiz-adv-x="544" d="M-108 1217l246 317h288l246 -317h-246l-145 169l-143 -169h-246zM129 0v1069h287v-1069h-287z" />
<glyph unicode="&#xef;" horiz-adv-x="544" d="M-57 1245v256h266v-256h-266zM129 0v1069h287v-1069h-287zM357 1245v256h266v-256h-266z" />
<glyph unicode="&#xf0;" horiz-adv-x="1261" d="M90 487q0 235 144 381q138 140 344.5 140t310.5 -142q-23 113 -84.5 204t-190.5 149l-147 -148l-107 113l89 88q-80 18 -181 24l41 220q196 -22 322 -62l123 121l106 -113l-74 -73q186 -98 285.5 -291t99.5 -514q0 -298 -153 -462q-145 -155 -387 -155q-248 0 -393 137 q-148 140 -148 383zM387 487q0 -141 66.5 -215.5t174 -74.5t177 75.5t69.5 208.5v15q0 146 -67 217q-35 39 -80 52t-109 13q-98 0 -164.5 -74.5t-66.5 -216.5z" />
<glyph unicode="&#xf1;" d="M127 0v1069h279v-147q121 180 331 180q182 0 270.5 -95.5t88.5 -299.5v-707h-287v668q0 113 -43 153.5t-106 40.5q-106 0 -179 -63q-67 -67 -67 -156v-643h-287zM215 1233q0 154 65.5 222.5t177.5 68.5q57 0 117 -31t89.5 -45t62.5 -14t54.5 16t21.5 66h192 q0 -154 -65.5 -221.5t-176.5 -67.5q-59 0 -118.5 31.5t-88 46t-61.5 14.5q-78 0 -78 -86h-192z" />
<glyph unicode="&#xf2;" horiz-adv-x="1261" d="M90 537q0 264 146.5 414.5t394.5 150.5q249 0 396 -150q144 -148 144 -415q0 -266 -146 -418t-399 -152t-394.5 147.5t-141.5 422.5zM282 1534h326l246 -317h-265zM387 534.5q0 -337.5 243.5 -337.5t243.5 340q0 335 -243 335q-244 0 -244 -337.5z" />
<glyph unicode="&#xf3;" horiz-adv-x="1261" d="M90 537q0 264 146.5 414.5t394.5 150.5q249 0 396 -150q144 -148 144 -415q0 -266 -146 -418t-399 -152t-394.5 147.5t-141.5 422.5zM387 534.5q0 -337.5 243.5 -337.5t243.5 340q0 335 -243 335q-244 0 -244 -337.5zM426 1217l246 317h326l-308 -317h-264z" />
<glyph unicode="&#xf4;" horiz-adv-x="1261" d="M90 537q0 264 146.5 414.5t394.5 150.5q249 0 396 -150q144 -148 144 -415q0 -266 -146 -418t-399 -152t-394.5 147.5t-141.5 422.5zM240 1217l246 317h288l246 -317h-246l-145 169l-143 -169h-246zM387 534.5q0 -337.5 243.5 -337.5t243.5 340q0 335 -243 335 q-244 0 -244 -337.5z" />
<glyph unicode="&#xf5;" horiz-adv-x="1261" d="M90 537q0 264 146.5 414.5t394.5 150.5q249 0 396 -150q144 -148 144 -415q0 -266 -146 -418t-399 -152t-394.5 147.5t-141.5 422.5zM240 1233q0 154 65.5 222.5t177.5 68.5q57 0 117 -31t89.5 -45t62.5 -14t54.5 16t21.5 66h192q0 -154 -65.5 -221.5t-176.5 -67.5 q-59 0 -118.5 31.5t-88 46t-61.5 14.5q-78 0 -78 -86h-192zM387 534.5q0 -337.5 243.5 -337.5t243.5 340q0 335 -243 335q-244 0 -244 -337.5z" />
<glyph unicode="&#xf6;" horiz-adv-x="1261" d="M90 537q0 264 146.5 414.5t394.5 150.5q249 0 396 -150q144 -148 144 -415q0 -266 -146 -418t-399 -152t-394.5 147.5t-141.5 422.5zM291 1245v256h266v-256h-266zM387 534.5q0 -337.5 243.5 -337.5t243.5 340q0 335 -243 335q-244 0 -244 -337.5zM705 1245v256h266v-256 h-266z" />
<glyph unicode="&#xf7;" d="M158 573v248h897v-248h-897zM475 170v276h258v-276h-258zM475 934v276h258v-276h-258z" />
<glyph unicode="&#xf8;" horiz-adv-x="1261" d="M90 537q0 264 146.5 414.5t394.5 150.5q139 0 254 -51l88 131l129 -88l-88 -129q157 -153 157 -428q0 -266 -146 -418t-394 -152q-145 0 -260 51l-101 -149l-129 88l101 147q-152 152 -152 433zM387 537q0 -121 25 -183l333 492q-47 27 -114 26q-244 0 -244 -335z M512 223q47 -27 119 -26q243 0 243 340q0 102 -26 182z" />
<glyph unicode="&#xf9;" horiz-adv-x="1202" d="M117 362v707h286v-668q0 -115 41 -154.5t104.5 -39.5t99.5 16.5t69 46.5q71 63 71 156v643h287v-1069h-278v147q-126 -180 -317 -180t-277 95.5t-86 299.5zM254 1534h326l246 -317h-265z" />
<glyph unicode="&#xfa;" horiz-adv-x="1202" d="M117 362v707h286v-668q0 -115 41 -154.5t104.5 -39.5t99.5 16.5t69 46.5q71 63 71 156v643h287v-1069h-278v147q-126 -180 -317 -180t-277 95.5t-86 299.5zM391 1217l246 317h326l-308 -317h-264z" />
<glyph unicode="&#xfb;" horiz-adv-x="1202" d="M117 362v707h286v-668q0 -115 41 -154.5t104.5 -39.5t99.5 16.5t69 46.5q71 63 71 156v643h287v-1069h-278v147q-126 -180 -317 -180t-277 95.5t-86 299.5zM209 1217l246 317h288l246 -317h-246l-145 169l-143 -169h-246z" />
<glyph unicode="&#xfc;" horiz-adv-x="1202" d="M117 362v707h286v-668q0 -115 41 -154.5t104.5 -39.5t99.5 16.5t69 46.5q71 63 71 156v643h287v-1069h-278v147q-126 -180 -317 -180t-277 95.5t-86 299.5zM260 1245v256h266v-256h-266zM674 1245v256h266v-256h-266z" />
<glyph unicode="&#xfd;" horiz-adv-x="1161" d="M16 1069h332l250 -702l233 702h314l-432 -1100q-37 -92 -70 -160.5t-75 -114.5q-83 -91 -244 -91q-114 0 -215 32l47 213q59 -16 118 -16t94 27.5t60 97.5l33 90zM377 1217l246 317h326l-308 -317h-264z" />
<glyph unicode="&#xfe;" horiz-adv-x="1275" d="M127 -397v1859h287v-522q117 162 333.5 162t327.5 -151.5t111 -415.5q0 -257 -124 -411q-127 -157 -341 -157q-80 0 -159 29t-148 115v-508h-287zM412 526q0 -195 73 -268q65 -59 168 -59q163 0 215 179q19 64 19 154q0 336 -228 336q-98 0 -167 -59q-80 -76 -80 -250 v-33z" />
<glyph unicode="&#xff;" horiz-adv-x="1161" d="M16 1069h332l250 -702l233 702h314l-432 -1100q-37 -92 -70 -160.5t-75 -114.5q-83 -91 -244 -91q-114 0 -215 32l47 213q59 -16 118 -16t94 27.5t60 97.5l33 90zM242 1245v256h266v-256h-266zM656 1245v256h266v-256h-266z" />
<glyph unicode="&#x152;" horiz-adv-x="2174" d="M102 731q0 349 184 561q179 207 474 207q135 0 224 -46t157 -130v139h944v-260h-649v-319h608v-262h-608v-361h692l-31 -260h-956v135q-135 -172 -381 -172q-299 0 -477 207q-181 210 -181 561zM420 730q0 -243 92 -374t273 -131t265.5 124t90.5 356v49q-6 229 -90 356 t-265.5 127t-273.5 -132t-92 -375z" />
<glyph unicode="&#x153;" horiz-adv-x="1966" d="M90 537q0 263 146 415q144 150 389 150q139 0 228 -52.5t153 -156.5q70 104 160.5 156.5t224.5 52.5q240 0 363.5 -141.5t123.5 -380.5v-115h-729q4 -129 64.5 -202t179.5 -73q163 0 194 144h279q-29 -180 -143.5 -273.5t-331.5 -93.5q-143 0 -234.5 52.5t-157.5 152.5 q-68 -100 -154.5 -152.5t-219.5 -52.5q-254 0 -394.5 147.5t-140.5 422.5zM387 537q0 -340 238 -340q233 0 237 335v5q0 335 -237 335q-117 0 -177.5 -86t-60.5 -249zM1153 653h449q0 111 -54.5 172.5t-164.5 61.5t-167 -67.5t-63 -166.5z" />
<glyph unicode="&#x178;" horiz-adv-x="1345" d="M20 1462h340l316 -592l325 592h324l-494 -866v-596h-305v596zM322 1602v264h274v-264h-274zM748 1602v264h274v-264h-274z" />
<glyph unicode="&#x2c6;" horiz-adv-x="847" d="M33 1217l246 317h288l246 -317h-246l-145 169l-143 -169h-246z" />
<glyph unicode="&#x2dc;" horiz-adv-x="847" d="M33 1233q0 154 65.5 222.5t177.5 68.5q57 0 117 -31t89.5 -45t62.5 -14t54.5 16t21.5 66h192q0 -154 -65.5 -221.5t-176.5 -67.5q-59 0 -118.5 31.5t-88 46t-61.5 14.5q-78 0 -78 -86h-192z" />
<glyph unicode="&#x2000;" horiz-adv-x="939" />
<glyph unicode="&#x2001;" horiz-adv-x="1878" />
<glyph unicode="&#x2002;" horiz-adv-x="939" />
<glyph unicode="&#x2003;" horiz-adv-x="1878" />
<glyph unicode="&#x2004;" horiz-adv-x="626" />
<glyph unicode="&#x2005;" horiz-adv-x="469" />
<glyph unicode="&#x2006;" horiz-adv-x="313" />
<glyph unicode="&#x2007;" horiz-adv-x="313" />
<glyph unicode="&#x2008;" horiz-adv-x="234" />
<glyph unicode="&#x2009;" horiz-adv-x="375" />
<glyph unicode="&#x200a;" horiz-adv-x="104" />
<glyph unicode="&#x2010;" horiz-adv-x="796" d="M92 471v283h613v-283h-613z" />
<glyph unicode="&#x2011;" horiz-adv-x="796" d="M92 471v283h613v-283h-613z" />
<glyph unicode="&#x2012;" horiz-adv-x="796" d="M92 471v283h613v-283h-613z" />
<glyph unicode="&#x2013;" horiz-adv-x="1024" d="M0 477v271h1024v-271h-1024z" />
<glyph unicode="&#x2014;" horiz-adv-x="2048" d="M0 477v271h2048v-271h-2048z" />
<glyph unicode="&#x2018;" horiz-adv-x="493" d="M86 942l127 520h219l-65 -520h-281z" />
<glyph unicode="&#x2019;" horiz-adv-x="493" d="M61 942l68 520h279l-127 -520h-220z" />
<glyph unicode="&#x201a;" horiz-adv-x="493" d="M71 -193l68 523h279l-127 -523h-220z" />
<glyph unicode="&#x201c;" horiz-adv-x="856" d="M86 942l127 520h203l-66 -520h-264zM465 942l127 520h203l-66 -520h-264z" />
<glyph unicode="&#x201d;" horiz-adv-x="856" d="M61 942l68 520h262l-127 -520h-203zM440 942l66 520h264l-127 -520h-203z" />
<glyph unicode="&#x201e;" horiz-adv-x="856" d="M72 -195l67 523h262l-127 -523h-202zM451 -195l65 523h264l-127 -523h-202z" />
<glyph unicode="&#x2022;" horiz-adv-x="819" d="M102 744q0 69 24 125.5t64 96.5q87 85 222 85q132 0 219 -85q86 -84 86 -221t-86 -223t-219 -86q-137 0 -222 86q-88 90 -88 222z" />
<glyph unicode="&#x2026;" horiz-adv-x="1996" d="M106 0v330h293v-330h-293zM851 0v330h293v-330h-293zM1599 0v330h293v-330h-293z" />
<glyph unicode="&#x202f;" horiz-adv-x="375" />
<glyph unicode="&#x2039;" horiz-adv-x="669" d="M72 528l262 459h295l-238 -457l238 -469h-299z" />
<glyph unicode="&#x203a;" horiz-adv-x="669" d="M41 61l238 459l-238 467h301l256 -465l-260 -461h-297z" />
<glyph unicode="&#x205f;" horiz-adv-x="469" />
<glyph unicode="&#x20ac;" d="M29 453l28 186h105v125h-133l28 186h125q61 350 319 464q91 40 212 40q221 0 328.5 -103.5t134.5 -308.5l-256 -41q-23 111 -69 157t-147 46q-182 0 -235 -254h328l-29 -186h-322v-125h308l-31 -186h-254q51 -242 229 -242q111 0 163 53t65 164h268q-32 -465 -502 -465 q-432 0 -514 490h-149z" />
<glyph unicode="&#x2122;" horiz-adv-x="1886" d="M41 1286v176h702v-176h-254v-643h-198v643h-250zM840 643v819h239l219 -594l222 594h235v-819h-182v516l-193 -516h-168l-192 514v-514h-180z" />
<glyph unicode="&#xe000;" horiz-adv-x="1064" d="M0 0v1065h1065v-1065h-1065z" />
</font>
</defs>
</svg>
