<?xml version="1.0" standalone="no"?>
<!DOCTYPE svg PUBLIC "-//W3C//DTD SVG 1.1//EN" "http://www.w3.org/Graphics/SVG/1.1/DTD/svg11.dtd" >
<svg xmlns="http://www.w3.org/2000/svg">
<metadata></metadata>
<defs>
<font id="k22_didoniregular" horiz-adv-x="1200" >
<font-face units-per-em="2048" ascent="1536" descent="-512" />
<missing-glyph horiz-adv-x="716" />
<glyph horiz-adv-x="0" />
<glyph horiz-adv-x="682" />
<glyph unicode=" "  horiz-adv-x="716" />
<glyph unicode="&#x09;" horiz-adv-x="716" />
<glyph unicode="&#xa0;" horiz-adv-x="716" />
<glyph unicode="!" horiz-adv-x="585" d="M70 1206q0 100 73 174t150 74t150 -74t73 -174q0 -77 -21 -153.5t-50.5 -135.5t-59.5 -111t-51 -100t-21 -83v-193h-41v193q0 35 -21 83t-50.5 100t-59 111t-50.5 135.5t-21 153.5zM88 186q0 85 60 145t145 60t145 -60t60 -145t-60 -144.5t-145 -59.5t-145 59.5 t-60 144.5z" />
<glyph unicode="$" horiz-adv-x="1202" d="M53 358q0 85 60 145t145 60t145 -60t60 -145q0 -103 -94 -172q-56 -39 -56 -69q0 -20 33 -31q77 -23 137 -25v531q-154 65 -215 105q-147 97 -168 257q-4 30 -4 62q0 44 27.5 100t76 111t123.5 102t160 68v139h41v-131q39 8 90 8q21 0 33 -2v125h41v-127q59 -7 120 -25.5 t121.5 -51t99 -85.5t38.5 -117q0 -72 -52.5 -124t-125.5 -52q-72 0 -124 52t-52 124q0 50 25 92t67 66q33 20 33 29q0 8 -37 26q-59 19 -113 25v-483q213 -84 291 -130q151 -87 172 -204q4 -22 4 -45q0 -93 -37 -173.5t-102 -138.5t-148.5 -97.5t-179.5 -59.5v-170h-41v164 q-75 -11 -123 -11v-153h-41v153q-188 9 -309 109t-121 229zM381 1151q0 -94 102 -166v348q-102 -66 -102 -182zM524 61q67 0 123 11v446q-59 30 -123 57v-514zM524 958q56 -30 123 -57v471q-6 0 -17 1t-16 1q-46 0 -90 -20v-396zM688 82q143 36 143 143q0 170 -143 267v-410 z" />
<glyph unicode="&#x26;" horiz-adv-x="1703" d="M61 313q0 83 21 151.5t53 115t83 86t97.5 63.5t110.5 49q-80 157 -80 301q0 79 25.5 146t76.5 119t135 81t193 29q160 0 269.5 -73t109.5 -169q0 -90 -87.5 -166t-236.5 -145q101 -157 222 -287q27 72 50 122.5t58 107.5t73 91.5t91.5 57.5t116.5 23q87 0 146 -69 t59 -159q0 -91 -60 -153t-145 -62t-145 60t-60 145q0 46 23 94q6 12 6 19q0 6 -4 6q-5 0 -14 -7t-15 -16q-88 -127 -150 -294q243 -250 433 -250q15 0 24.5 3t23.5 16.5t21.5 48.5t7.5 91h1h3.5t5 -0.5t5.5 -0.5h6h6.5t6 -0.5t4 -0.5h2.5h1l-6 -153q-4 -91 -63.5 -174 t-150.5 -131.5t-185 -48.5q-111 0 -191 69q-119 105 -143 129q-146 -198 -408 -198q-188 0 -307 94t-119 239zM360 633q0 -64 70 -185.5t159.5 -218t139.5 -96.5q25 0 45 10q44 19 88 66q-126 121 -223.5 245t-192.5 287q-33 -15 -47 -24q-39 -20 -39 -84zM641 1360 q0 -68 45.5 -181.5t122.5 -240.5q58 31 83.5 57.5t25.5 57.5q0 43 -38 127.5t-92.5 154.5t-93.5 70q-53 0 -53 -45z" />
<glyph unicode="." horiz-adv-x="544" d="M68 205q0 85 59.5 145t144.5 60t145 -60t60 -145t-60 -145t-145 -60t-144.5 60t-59.5 145z" />
<glyph unicode="0" d="M68 717q0 201 71 370.5t193.5 268t267.5 98.5t268 -98.5t194 -268t71 -370.5t-71 -370.5t-194 -268t-268 -98.5t-267.5 98.5t-193.5 268t-71 370.5zM457 717q0 -167 2 -275t9 -190t15.5 -124.5t26.5 -68.5t37.5 -32.5t52.5 -6.5t52.5 6.5t37.5 32.5t26.5 68.5t15.5 124.5 t9 190t2 275t-2 275t-9 189.5t-15.5 124.5t-26.5 68.5t-37.5 32t-52.5 6.5t-52.5 -6.5t-37.5 -32t-26.5 -68.5t-15.5 -124.5t-9 -189.5t-2 -275z" />
<glyph unicode="1" horiz-adv-x="790" d="M33 0v41h41q69 0 96 28t27 95v942q0 30 -26 56t-56 26h-43v41q103 0 196 43.5t277 161.5h41v-1270q0 -67 27 -95t96 -28h41v-41h-717z" />
<glyph unicode="2" horiz-adv-x="1245" d="M76 975q0 63 23.5 130t71 129t113 111.5t156.5 79t193 29.5q101 0 190.5 -26t151.5 -66.5t107.5 -89.5t67 -95t21.5 -83q0 -89 -35.5 -162.5t-95.5 -124t-138 -91t-164 -69.5t-172 -55t-164 -52t-138 -55t-95.5 -70t-35.5 -91v-43q19 19 54 45t85.5 55.5t115.5 49.5 t126 20q104 0 237 -31t173 -31q30 0 62.5 8t65 25t53.5 51t21 80h41v-205q0 -46 -35.5 -109.5t-89.5 -121t-127 -97.5t-141 -40q-85 0 -147.5 17.5t-95 43.5t-60.5 56.5t-47 56.5t-52.5 43.5t-78.5 17.5q-26 0 -60 -11t-67 -42.5t-33 -75.5q0 -14 -1 -33t-1 -33h-41 q2 98 2 304q0 53 21.5 93.5t58 67.5t83.5 49t99 44t104.5 48t99.5 65.5t83.5 91.5t58 131.5t21.5 179.5q0 114 -77.5 200t-166.5 86q-76 0 -129 -47t-53 -129q0 -139 82 -139q45 0 104 41h41q62 -48 62 -121q0 -91 -83.5 -170.5t-185.5 -79.5q-98 0 -168.5 62.5t-70.5 177.5 z" />
<glyph unicode="3" horiz-adv-x="1171" d="M63 324q0 97 70.5 173t165.5 76q85 0 145 -59.5t60 -144.5t-60 -145t-145 -60q-34 0 -84 16q-28 8 -35 8q-18 0 -18 -12q0 -11 16 -33q47 -60 132.5 -91.5t181.5 -31.5q56 0 97.5 23.5t66.5 61.5t40 94.5t20 113.5t5 129q0 166 -37.5 241t-138.5 75h-123v41h65 q108 0 130 53t22 258q0 89 -2 129t-11 89t-30.5 67t-58.5 18q-112 0 -195 -53q-23 -16 -23 -21q0 -8 54 -8q79 0 135.5 -61.5t56.5 -143.5q0 -85 -60 -144.5t-145 -59.5t-144.5 59.5t-59.5 144.5v9q0 137 116 228t265 91q117 0 224 -38.5t180 -116.5t73 -179 q0 -108 -72.5 -201.5t-206.5 -134.5q375 -60 375 -342q0 -95 -38.5 -173.5t-100.5 -131t-144 -89t-166 -52.5t-169 -16q-110 0 -207 41.5t-159.5 121.5t-62.5 181z" />
<glyph unicode="4" horiz-adv-x="1165" d="M20 451l562 983h309v-902h88q55 0 75.5 19t20.5 63h41q0 -98 -27.5 -130.5t-109.5 -32.5h-88v-287q0 -67 27 -95t96 -28h41v-41h-717v41h41q69 0 96 28t27 95v287h-482zM115 532h387v676z" />
<glyph unicode="5" horiz-adv-x="1153" d="M63 324q0 96 69 172.5t159 76.5t151.5 -59.5t61.5 -144.5t-60 -145t-145 -60q-23 0 -61.5 12t-57.5 12q-18 0 -18 -12q0 -16 22 -41q53 -56 134.5 -85.5t173.5 -29.5q40 0 72 14.5t53.5 38t37 61t24.5 74.5t13.5 88t6 92t1.5 95q0 156 -77 267.5t-183 111.5 q-129 0 -237 -180l-4 -31q-39 4 -41 4l96 779h41q164 -35 285 -35q83 0 160.5 13t195.5 42h39v-59q0 -64 -55 -124.5t-133 -99.5t-157.5 -62.5t-133.5 -23.5h-244l-39 -309q64 75 164.5 114.5t210.5 39.5q75 0 147 -17.5t136.5 -54.5t113 -89t77 -126t28.5 -160 q0 -118 -55 -216t-142.5 -159t-192 -94.5t-208.5 -33.5q-110 0 -207 41.5t-159.5 121.5t-62.5 181z" />
<glyph unicode="6" horiz-adv-x="1196" d="M63 717q0 148 54.5 290t139.5 243t191.5 163t208.5 62q73 0 140.5 -17t124.5 -50t91 -90t34 -130q0 -85 -60 -145t-145 -60t-145 60t-60 145q0 68 41.5 120t107.5 76q35 12 35 19q0 9 -33.5 15.5t-50.5 6.5q-43 0 -78.5 -15.5t-61 -39t-46 -62t-33.5 -73.5t-22 -86 t-13.5 -87t-6.5 -88.5t-2.5 -78t-0.5 -68.5q102 95 205 95q89 0 164 -26t127 -70t88.5 -102t53.5 -123t17 -132q0 -90 -39 -177.5t-107 -157t-169 -112t-217 -42.5q-145 0 -268 98.5t-194 268t-71 370.5zM473 772q0 -448 20.5 -600t102.5 -152q77 0 120.5 102.5t43.5 317.5 q0 229 -25 335t-82 106q-37 0 -85.5 -30t-94.5 -79z" />
<glyph unicode="7" horiz-adv-x="1001" d="M82 911l31 461q45 0 158.5 41t164.5 41q82 0 157 -22t130.5 -44t91.5 -22q57 0 107 47h41q6 -47 6 -86q0 -77 -23 -150t-60 -134.5t-82 -126t-90 -140.5t-82 -161.5t-60 -204t-23 -254.5q0 -62 22 -156h-430q-22 90 -22 156q0 98 34 186t91 157t127 133t147 127 t146.5 125.5t129.5 141.5t91 162q-138 -109 -295 -109q-68 0 -173 27t-141 27q-62 0 -104.5 -40t-46.5 -137l-2 -45h-41z" />
<glyph unicode="8" d="M61 369q0 99 73.5 183t217.5 128q-99 71 -148.5 162.5t-49.5 189.5q0 82 34.5 158.5t96 135t153.5 93.5t199 35q185 0 289 -85.5t104 -201.5q0 -87 -60 -161t-171 -109q163 -45 249.5 -167t86.5 -271q0 -91 -33 -175.5t-95 -153t-161.5 -109.5t-220.5 -41 q-128 0 -236 33.5t-178.5 88.5t-110 124.5t-39.5 142.5zM332 365q0 -149 77.5 -247t215.5 -98q88 0 147 62t59 180q0 62 -19.5 112.5t-46.5 82.5t-75.5 62.5t-86.5 47t-100 43t-97 43.5q-74 -136 -74 -288zM463 1210q0 -39 8.5 -71.5t20 -56.5t36 -46.5t44 -36.5t55.5 -31 t60 -26.5t69 -26.5q53 104 53 246q0 110 -46 181t-147 71q-63 0 -108 -56t-45 -147z" />
<glyph unicode="9" d="M94 276q0 85 60 145t145 60t145 -60t60 -145q0 -57 -29.5 -105t-77.5 -75q-3 -2 -8 -4q-46 -26 -47 -35q0 -13 39 -20.5t59 -7.5q54 2 96 24t70 53.5t48 83t30.5 98t16 113.5t7 114t1.5 114q-73 -97 -164 -97q-110 0 -198.5 36.5t-142.5 97.5t-82 137.5t-28 161.5 q0 91 32.5 177.5t93 156.5t156 112.5t210.5 42.5q145 0 267.5 -98.5t193.5 -268t71 -370.5t-71 -370.5t-193.5 -268t-267.5 -98.5q-240 0 -366 73.5t-126 222.5zM463 993q0 -224 19.5 -322t74.5 -98q49 0 100.5 49.5t51.5 108.5q0 413 -19.5 547.5t-103.5 134.5 q-71 0 -97 -94.5t-26 -325.5z" />
<glyph unicode="?" horiz-adv-x="1150" d="M53 1030q0 71 36.5 144.5t103.5 136.5t174 103t235 40q101 0 188.5 -26t146.5 -66.5t101.5 -89.5t62 -95t19.5 -83q0 -89 -36 -159t-93 -113t-126 -75.5t-138.5 -53t-126.5 -38t-93 -39t-36 -47.5v-139h-41q0 19 1 60t1 79q0 39 13 72t34 58.5t46.5 51t51 57t46.5 69 t34 93.5t13 124q0 114 -77.5 200t-166.5 86q-54 0 -113 -31t-110 -83q-49 -52 -49 -70q0 -4 4 -4q5 0 20 6q60 31 109 31q85 0 145 -60t60 -145t-60 -145t-145 -60q-114 0 -174 59t-60 152zM246 186q0 85 60 145t145 60t144.5 -60t59.5 -145t-59.5 -144.5t-144.5 -59.5 t-145 59.5t-60 144.5z" />
<glyph unicode="A" horiz-adv-x="1589" d="M35 0v41h41q65 0 109 52.5t69 133.5l373 1207h327l383 -1272q20 -65 63.5 -93t115.5 -28h40v-41h-798v41h41q100 0 100 70q0 24 -8 51l-123 401h-367l-77 -252q-15 -49 -15 -86q0 -40 15 -73t38 -53t53 -33.5t57.5 -19t53.5 -5.5h41v-41h-532zM414 604h342l-170 559z" />
<glyph unicode="B" horiz-adv-x="1533" d="M72 0v41h41q69 0 96 28t27 95v1106q0 67 -27 95t-96 28h-41v41h827q111 0 201 -29.5t145.5 -78.5t85 -109.5t29.5 -126.5q0 -103 -69.5 -190.5t-196.5 -125.5q174 -37 272 -148.5t98 -244.5q0 -74 -32.5 -141t-94.5 -121.5t-165 -86.5t-232 -32h-868zM666 164 q0 -67 26.5 -95t95.5 -28h60q29 0 50.5 9.5t35 32.5t21.5 48.5t12 71.5t5 85t1 105q0 169 -51.5 262t-141.5 93h-114v-584zM666 788h116q70 0 106 79.5t36 224.5q0 146 -37.5 223.5t-110.5 77.5h-110v-605z" />
<glyph unicode="C" horiz-adv-x="1445" d="M66 717q0 150 54.5 286.5t147 235.5t221 157t271.5 58q90 0 168.5 -14.5t121 -31.5t80.5 -31.5t56 -14.5q21 0 36.5 16t34.5 56h41v-607h-43q-20 132 -53.5 232.5t-90 183t-144 126.5t-203.5 44q-123 0 -184.5 -178.5t-61.5 -517.5t77 -516.5t230 -177.5q94 0 171 20 t128.5 51.5t90 78t59.5 92.5t34 102t17 99t4 91h41q0 -577 -565 -577q-210 0 -380 99t-264.5 267.5t-94.5 370.5z" />
<glyph unicode="D" horiz-adv-x="1540" d="M72 0v41h41q69 0 96 28t27 95v1106q0 67 -27 95t-96 28h-41v41h700q191 0 352 -93.5t255 -258.5t94 -365t-94 -365t-255 -258.5t-352 -93.5h-700zM666 164q0 -67 26.5 -95t95.5 -28q57 0 96.5 16t65 63t39.5 89t20.5 137.5t7.5 162.5t1 208q0 143 -1 208t-7 162t-20 138 t-39 88.5t-64.5 63.5t-95.5 16h-125v-1229z" />
<glyph unicode="E" horiz-adv-x="1419" d="M68 0v41h41q69 0 95.5 28t26.5 95v1106q0 67 -26.5 95t-95.5 28h-41v41h1198v-529h-41q-1 69 -37.5 154t-93 159t-135 124.5t-154.5 50.5h-143v-594h45q71 0 141 50t110 111.5t41 104.5h41v-614h-41q-1 43 -41 104.5t-110 111.5t-141 50h-45v-553q0 -67 26.5 -95 t95.5 -28h82q76 0 154.5 63.5t135 154t93 188.5t37.5 167h41v-614h-1259z" />
<glyph unicode="F" horiz-adv-x="1247" d="M66 0v41h40q69 0 96 28t27 95v1106q0 67 -27 95t-96 28h-40v41h1136v-529h-41q-1 69 -37.5 154t-93 159t-135 124.5t-154.5 50.5h-82v-594h46q54 0 99.5 29.5t73 73t42.5 87t16 76.5h41v-614h-41q-1 33 -16 76.5t-42.5 87t-73 73t-99.5 29.5h-46v-553q0 -67 27 -95 t96 -28h41v-41h-757z" />
<glyph unicode="G" horiz-adv-x="1640" d="M70 717q0 150 54.5 286.5t147 235.5t221 157t271.5 58q89 0 168 -14.5t123 -32.5t84 -32.5t61 -14.5q24 0 42 16.5t36 57.5h41v-533q0 -8 2 -12h-43q-38 259 -158.5 391.5t-351.5 132.5q-123 0 -184.5 -178.5t-61.5 -517.5t61.5 -518t184.5 -179q121 0 172 41t51 103v409 q0 67 -27 95t-96 28h-41v41h758v-41h-41q-69 0 -96 -28t-27 -95v-573h-41q-73 127 -155 127q-36 0 -87.5 -23t-99.5 -50.5t-121.5 -50.5t-148.5 -23q-143 0 -272 58t-222.5 157t-148.5 235.5t-55 286.5z" />
<glyph unicode="H" horiz-adv-x="1724" d="M74 0v41h41q69 0 96 28t27 95v1106q0 67 -27 95t-96 28h-41v41h757v-41h-40q-69 0 -96 -28t-27 -95v-482h389v482q0 67 -27 95t-96 28h-41v41h758v-41h-41q-69 0 -96 -28t-27 -95v-1106q0 -67 27 -95t96 -28h41v-41h-758v41h41q69 0 96 28t27 95v584h-389v-584 q0 -67 27 -95t96 -28h40v-41h-757z" />
<glyph unicode="I" horiz-adv-x="860" d="M51 0v41h41q69 0 96 28t27 95v1106q0 67 -27 95t-96 28h-41v41h758v-41h-41q-69 0 -96 -28t-27 -95v-1106q0 -67 27 -95t96 -28h41v-41h-758z" />
<glyph unicode="J" horiz-adv-x="1226" d="M35 399q0 85 60 145t145 60t144.5 -60t59.5 -145t-59.5 -144.5t-144.5 -59.5q-80 0 -80 -23q0 -12 24 -39q47 -49 111 -77.5t131 -28.5q42 0 70 14.5t45.5 40t27 73t12.5 100t3 134.5v881q0 67 -27 95t-96 28h-41v41h758v-41h-41q-69 0 -96 -28t-27 -95v-840 q0 -86 -29 -160.5t-78 -126.5t-114 -89.5t-138 -55.5t-149 -18q-91 0 -173.5 26.5t-150 76.5t-107.5 132t-40 184z" />
<glyph unicode="K" horiz-adv-x="1722" d="M74 0v41h41q69 0 96 28t27 95v1106q0 67 -27 95t-96 28h-41v41h757v-41h-40q-69 0 -96 -28t-27 -95v-439l368 381q23 23 23 60q0 44 -29.5 82.5t-71.5 38.5h-45v41h574v-41h-41q-175 0 -340 -168l-172 -176l489 -887q35 -65 87 -93t126 -28h41v-41h-798v41h41q43 0 43 39 q0 26 -27 76l-268 487v-479q0 -67 27 -95t96 -28h40v-41h-757z" />
<glyph unicode="L" horiz-adv-x="1288" d="M66 0v41h40q69 0 96 28t27 95v1106q0 67 -27 95t-96 28h-20v41h717v-41h-21q-69 0 -96 -28t-27 -95v-1106q0 -67 27 -95t96 -28q75 0 154 67t135.5 161.5t93 195t37.5 170.5h41v-635h-1177z" />
<glyph unicode="M" horiz-adv-x="1826" d="M72 0v41h41q43 0 77 27t51.5 65.5t26 73.5t8.5 59v1004q0 42 -40 82.5t-82 40.5h-41v41h561l282 -873l226 873h569v-41h-41q-69 0 -96 -28t-27 -95v-1106q0 -67 27 -95t96 -28h41v-41h-758v41h41q69 0 96 28t27 95v1012l-303 -1176h-166l-371 1143v-836q0 -25 9 -65.5 t26.5 -87.5t51.5 -80t77 -33h41v-41h-450z" />
<glyph unicode="N" horiz-adv-x="1519" d="M66 0v41h40q43 0 77 27t51.5 65.5t26.5 73.5t9 59v1004q0 67 -27 95t-96 28h-41v41h572l534 -1041v733q0 19 -5 49t-17.5 68.5t-30 71.5t-46.5 55.5t-64 22.5h-41v41h450v-41h-41q-43 0 -77 -27t-51.5 -66t-26.5 -74t-9 -59v-1167h-321l-621 1200v-893q0 -25 9 -65.5 t26.5 -87.5t51.5 -80t77 -33h41v-41h-450z" />
<glyph unicode="O" horiz-adv-x="1533" d="M68 717q0 150 55 286.5t148.5 235.5t222.5 157t272 58t272.5 -58t223 -157t149 -235.5t55.5 -286.5t-55.5 -286.5t-149 -235.5t-223 -157t-272.5 -58t-272 58t-222.5 157t-148.5 235.5t-55 286.5zM520 717q0 -107 1.5 -180t7.5 -152.5t16.5 -130t28.5 -99.5t44 -76 t63 -43t85 -16t85 16t63 43t44 76t28.5 99.5t16.5 130t7.5 152.5t1.5 180t-1.5 180t-7.5 152t-16.5 130t-28.5 99.5t-44 75.5t-63 43t-85 16t-85 -16t-63 -43t-44 -75.5t-28.5 -99.5t-16.5 -130t-7.5 -152t-1.5 -180z" />
<glyph unicode="P" horiz-adv-x="1337" d="M68 0v41h41q69 0 95.5 28t26.5 95v1106q0 67 -26.5 95t-95.5 28h-41v41h651q147 0 260 -32.5t182 -90t104 -132t35 -163.5t-35 -163.5t-104 -132.5t-182 -91t-260 -33h-57v-432q0 -67 26.5 -95t95.5 -28h41v-41h-757zM662 674q0 -19 17 -28t40 -9q32 0 55 9.5t38.5 33 t24.5 51t13.5 75.5t6 93t1.5 117t-1.5 117t-6 93t-13.5 75t-24.5 50t-38.5 32.5t-55 9.5h-57v-719z" />
<glyph unicode="Q" horiz-adv-x="1521" d="M51 717q0 201 93.5 370.5t254.5 268t351 98.5q143 0 272.5 -58t223 -157t149 -235.5t55.5 -286.5q0 -240 -133 -432q6 -70 6 -148q0 -210 -86.5 -305.5t-273.5 -95.5q-130 0 -206.5 51.5t-76.5 126.5q0 40 6 70q-132 12 -250 74.5t-202.5 159.5t-133.5 227t-49 272z M504 717q0 -234 11.5 -368.5t49.5 -213.5v27q0 88 40 140t93 52q57 0 95.5 -13t56 -32.5t26.5 -50.5t9.5 -58t1.5 -64.5t6 -61.5q64 66 83 214.5t19 428.5q0 108 -1.5 180t-7 152t-16 130.5t-28.5 99t-44 75.5t-63 43t-85 16t-85 -16t-63 -43t-44 -75.5t-28.5 -99.5 t-16.5 -130t-7.5 -152t-1.5 -180zM604 121q0 -37 14 -58q15 -26 80 -38q11 29 46.5 89t35.5 97q0 35 -25 58.5t-57 23.5q-94 0 -94 -172zM926 2q49 -49 164 -49q68 0 130 76.5t62 142.5q0 15 -4 61q-139 -171 -352 -231z" />
<glyph unicode="R" horiz-adv-x="1576" d="M66 0v41h40q69 0 96 28t27 95v1106q0 67 -27 95t-96 28h-40v41h745q254 0 397.5 -93.5t143.5 -259.5q0 -128 -83.5 -212.5t-238.5 -118.5q168 -28 238.5 -99t70.5 -190v-11.5t-0.5 -29.5t-1 -50.5t-0.5 -84.5v-121q0 -24 12 -30.5t37 -6.5q19 0 33.5 14.5t23 42.5 t14 56.5t8 69.5t3 66.5t0.5 61.5h41q0 -93 -7 -163t-18.5 -120t-34 -83.5t-45.5 -53t-61.5 -29.5t-73.5 -13t-89 -3q-61 0 -127.5 25.5t-116 75.5t-49.5 110q0 1 1 206.5t1 213.5q0 44 -37.5 83.5t-101.5 39.5h-91v-563q0 -67 27 -95t96 -28h41v-41h-757zM659 768h91 q35 0 61 7.5t44.5 18.5t31 33.5t19.5 44.5t10.5 59t4.5 68t1 82q0 57 -1.5 93t-6 76t-14.5 62.5t-27 43t-42.5 29t-60.5 8.5h-111v-625z" />
<glyph unicode="S" horiz-adv-x="1296" d="M84 1036q0 44 24.5 98.5t73.5 110.5t113.5 103t153.5 76.5t184 29.5q55 0 155 -45t158 -45q87 0 121 70h41v-512h-41q-4 91 -48.5 182.5t-108.5 158t-138.5 108.5t-138.5 42q-72 0 -116 -57.5t-44 -175.5q0 -52 26 -92t69.5 -66t100 -47t119 -41t125 -42.5t119 -56 t100 -77t69.5 -110.5t26 -152q0 -42 -13.5 -100.5t-50.5 -133t-91.5 -136t-148.5 -104t-210 -42.5q-73 0 -238.5 51t-236.5 51q-77 0 -111 -62h-41v596h41q48 -105 84.5 -177t80 -144.5t83 -119t86.5 -82.5t98 -52q67 -21 154 -21q73 0 111 50.5t38 128.5q0 75 -26.5 133.5 t-71.5 98t-103.5 72t-123 59.5t-129 55t-123 65t-103.5 83t-71.5 115t-26.5 156z" />
<glyph unicode="T" horiz-adv-x="1447" d="M57 844v590h1332v-590h-41q-1 90 -57.5 221t-137.5 229.5t-143 98.5h-72v-1229q0 -67 27 -95t96 -28h41v-41h-758v41h41q69 0 96 28t27 95v1229h-72q-62 0 -143 -98.5t-137.5 -229.5t-57.5 -221h-41z" />
<glyph unicode="U" horiz-adv-x="1482" d="M57 1393v41h758v-41h-41q-69 0 -96 -28t-27 -95v-903q0 -271 283 -271q104 0 177 70t73 203v757q0 25 -9 65.5t-26.5 88t-51.5 80.5t-77 33h-41v41h451v-41h-41q-43 0 -77 -27t-51.5 -66t-26.5 -74t-9 -59v-798q0 -69 -15 -124.5t-40 -93.5t-64 -66t-80 -44t-95 -25.5 t-101.5 -12.5t-106.5 -3q-97 0 -185.5 23.5t-160 67.5t-114 115.5t-42.5 160.5v903q0 67 -27 95t-96 28h-41z" />
<glyph unicode="V" horiz-adv-x="1529" d="M33 1393v41h807v-41h-41q-60 0 -94.5 -21t-34.5 -61q0 -17 6 -35l291 -965l239 799q15 52 15 90q0 52 -22 91.5t-56 60.5t-69 31t-68 10h-41v41h532v-41h-41q-65 0 -109 -52t-69 -133l-363 -1208h-303l-372 1239q-22 73 -61 113.5t-105 40.5h-41z" />
<glyph unicode="W" horiz-adv-x="1990" d="M53 1393v41h631v-41q-51 0 -51 -66q0 -26 8 -59l199 -793l118 459l-79 305q-9 37 -13 51t-13.5 38t-19 33.5t-25.5 19t-38 12.5v41h621v-41h-41q-41 0 -41 -64q0 -28 8 -61l199 -793l163 635q15 56 15 102q0 84 -37.5 132.5t-85.5 48.5h-41v41h409v-41h-41 q-23 0 -43.5 -11.5t-36.5 -33.5t-28.5 -44t-24 -55t-18 -54t-14.5 -52l-295 -1143h-240l-217 850l-219 -850h-240l-321 1251q-18 75 -38.5 108.5t-68.5 33.5h-41z" />
<glyph unicode="X" horiz-adv-x="1710" d="M70 1393v41h778v-41h-57q-36 0 -57 -15.5t-21 -42.5q0 -26 20 -59l240 -387l78 145q53 100 53 195q0 73 -31.5 118.5t-79.5 45.5h-41v41h512v-41h-41q-45 0 -106.5 -56t-104 -115t-69.5 -108l-146 -266l424 -684q76 -123 197 -123h41v-41h-840v41h58q69 0 69 51 q0 22 -20 70q-33 75 -82.5 156t-114.5 177.5t-98 151.5l-137 -252q-39 -69 -39 -147q0 -88 53 -147.5t127 -59.5h41v-41h-594v41h41q34 0 77.5 32t83 80t69.5 91.5t50 79.5l201 364l-356 582q-4 6 -17.5 29t-17 28.5t-15 21.5t-18 20t-18 12t-24 10t-27.5 2h-41z" />
<glyph unicode="Y" horiz-adv-x="1513" d="M39 1393v41h778v-41h-57q-36 0 -56 -14t-20 -40q0 -27 25 -69l254 -416l98 180q53 95 53 193q0 73 -31 119.5t-79 46.5h-41v41h512v-41h-41q-34 0 -78.5 -32t-84.5 -79t-71 -91.5t-49 -78.5l-160 -295v-653q0 -67 27 -95t96 -28h41v-41h-758v41h41q69 0 96 28t27 95v547 q-37 60 -111.5 188.5t-128 215t-104.5 155.5q-7 10 -27 38.5t-27 36.5t-22 23.5t-29 20t-32 4.5h-41z" />
<glyph unicode="Z" horiz-adv-x="1335" d="M88 0v41l639 1352h-76q-61 0 -147 -63.5t-158 -149.5t-123.5 -177t-52.5 -143h-41v574h1077v-41l-641 -1352h178q76 0 161 70t149 168t107 202.5t44 173.5h41v-655h-1157z" />
<glyph unicode="a" horiz-adv-x="1175" d="M72 227q0 109 77.5 191t212.5 82q86 0 170 73.5t84 149.5v135q0 49 -39.5 72.5t-103.5 23.5q-51 0 -76 -8q-26 -9 -26 -20q0 -2 4 -6q149 -65 149 -181q0 -77 -54 -130.5t-130 -53.5q-77 0 -130.5 54.5t-53.5 135.5q0 65 32 116t87.5 82t123.5 46t146 15 q102 0 183.5 -16.5t127.5 -40.5t77 -53.5t41.5 -52.5t10.5 -42v-635q0 -72 29 -72q19 0 36 33.5t17 77.5v65h41v-127q0 -81 -61 -121t-152 -40q-88 0 -165.5 33.5t-102.5 88.5q-51 -56 -127 -89t-152 -33q-132 0 -204 72t-72 175zM461 145q0 -27 17.5 -48t41.5 -21 q32 0 64 41.5t32 105.5v383q-26 -34 -58.5 -63.5t-48.5 -44.5t-29 -51t-17 -95q-2 -23 -2 -207z" />
<glyph unicode="b" horiz-adv-x="1155" d="M63 1393v41h492v-555q45 63 120 94t159 31q58 0 106 -25.5t78.5 -65t51.5 -88t29.5 -92.5t8.5 -82v-237q0 -83 -29 -160.5t-82.5 -138.5t-137.5 -98t-187 -37q-52 0 -92 17.5t-65 43t-47 51t-50 43t-62 17.5q-46 0 -87.5 -47t-41.5 -105h-41v1311q0 30 -26 56t-56 26h-41 zM555 123q0 -31 26.5 -67t55.5 -36q14 0 23 1.5t25.5 12t27 30.5t18.5 61.5t8 99.5v615q0 36 -15.5 57t-39.5 21q-45 0 -87 -63t-42 -177v-555z" />
<glyph unicode="c" horiz-adv-x="1085" d="M66 492q0 100 33 185.5t88.5 144.5t128 101t150.5 61.5t157 19.5q157 0 263.5 -75.5t106.5 -211.5q0 -98 -67 -167t-164 -69q-76 0 -130 54t-54 131q0 76 54 130t130 54q89 0 151 -80q9 -12 17 -12t8 16q0 17 -8 33q-35 68 -111 113t-153 45q-82 0 -136.5 -56.5 t-54.5 -171.5v-532q0 -51 19 -90t47.5 -58t53.5 -28t44 -9q84 0 162.5 58.5t124 139t49.5 151.5h43q-10 -38 -16.5 -60.5t-24.5 -68.5t-37 -76t-53 -68t-74 -61t-98.5 -39t-126.5 -16q-149 0 -269.5 69t-186.5 185.5t-66 257.5z" />
<glyph unicode="d" horiz-adv-x="1177" d="M49 414v237q0 45 24.5 104.5t66.5 115.5t107.5 94.5t137.5 38.5q160 0 238 -105v412q0 30 -26 56t-56 26h-41v41h491v-1311q0 -29 25 -53t57 -29h41v-41h-491v102q-63 -122 -179 -122q-102 0 -180.5 36.5t-124 99t-68 138t-22.5 160.5zM438 225q0 -95 22.5 -132.5 t53.5 -37.5q38 0 73.5 51.5t35.5 108.5v463q0 114 -42 177t-87 63q-24 0 -40 -21t-16 -57v-615z" />
<glyph unicode="e" horiz-adv-x="1085" d="M66 492q0 139 68 257t186 186.5t258 68.5q211 0 325.5 -123t114.5 -369h-543v-307q0 -51 19 -90t47.5 -58t53.5 -28t44 -9q84 0 162.5 58.5t124 139t49.5 151.5h43q-10 -38 -16.5 -60.5t-24.5 -68.5t-37 -76t-53 -68t-74 -61t-98.5 -39t-126.5 -16q-149 0 -269.5 69 t-186.5 185.5t-66 257.5zM475 553h164v225q0 81 -7 121.5t-18.5 52t-35.5 11.5q-39 0 -71 -44.5t-32 -140.5v-225z" />
<glyph unicode="f" horiz-adv-x="1089" d="M49 0v41h41q69 0 96 28t27 95v778h-102v41h102v123q0 104 87 190.5t214 132.5t256 46q94 0 169.5 -26t125 -86.5t49.5 -148.5q0 -81 -53.5 -135.5t-130.5 -54.5t-131 54t-54 130q0 58 34.5 104.5t88.5 69.5q35 14 35 29q0 23 -82 23q-98 0 -168.5 -59t-70.5 -167v-225 h184v-41h-184v-778q0 -67 27 -95t96 -28h40v-41h-696z" />
<glyph unicode="g" horiz-adv-x="1224" d="M45 -186q0 48 37 87.5t111 61.5q-47 32 -76 85.5t-29 103.5q0 108 60 179.5t180 92.5q-89 43 -140 112t-51 150q0 132 129.5 225t313.5 93q68 0 129 -15q-47 61 -47 133q0 97 64.5 148t191.5 51q69 0 117 -48.5t48 -117.5q0 -70 -48 -119t-117 -49q-70 0 -119 48.5 t-49 119.5q0 16 -6.5 26.5t-14.5 10.5q-10 0 -18.5 -18t-8.5 -52q0 -43 21 -86t65 -69q111 -64 173.5 -130.5t62.5 -150.5q0 -132 -129.5 -224.5t-314.5 -92.5q-27 0 -84 11t-88 11t-53.5 -27t-22.5 -55q0 -23 17 -38t52 -15h408q136 0 240 -102.5t104 -212.5 q0 -81 -39 -146.5t-97 -104t-131.5 -65t-136.5 -36t-118 -9.5h-240q-144 0 -245 73.5t-101 160.5zM201 -203q0 -73 74 -124.5t178 -51.5q42 0 112 -2t90 -2q124 0 167.5 47.5t43.5 159.5q0 46 -45.5 75t-134.5 29h-391q-44 0 -69 -36t-25 -95zM522 541q0 -131 58 -131 q33 0 45 34.5t12 102.5v278q0 68 -12 103t-45 35q-58 0 -58 -132v-290z" />
<glyph unicode="h" horiz-adv-x="1275" d="M74 0v41h41q30 0 56 26t26 56v1188q0 30 -26 56t-56 26h-41v41h491v-555q45 63 120 94t159 31q109 0 191.5 -47t82.5 -117v-717q0 -30 26 -56t56 -26h41v-41h-573v41q30 0 56 26t26 56v717q0 36 -16 57t-40 21q-45 0 -87 -63t-42 -177v-555q0 -29 26 -55.5t54 -26.5v-41 h-571z" />
<glyph unicode="i" horiz-adv-x="702" d="M45 0v41h41q30 0 56 26t26 56v737q0 30 -26 56t-56 26h-41v41h492v-860q0 -30 25.5 -56t55.5 -26h41v-41h-614zM168 1225q0 77 54 130.5t130 53.5q77 0 131 -54t54 -130q0 -77 -54.5 -131t-130.5 -54t-130 54t-54 131z" />
<glyph unicode="j" horiz-adv-x="628" d="M-139 -205q0 77 54 131t130 54t130 -54t54 -131q0 -44 -34 -106q-7 -14 -7 -21q0 -12 13 -12q21 0 36 16t21.5 40.5t9 44.5t2.5 38q0 55 -15 88.5t-33 46.5t-56 31q2 25 2 899q0 30 -26 56t-56 26h-41v41h492v-1106q0 -76 -68 -142.5t-167.5 -103.5t-197.5 -37 q-106 0 -174.5 50t-68.5 151zM168 1229q0 77 54 130.5t130 53.5q77 0 131 -54t54 -130q0 -77 -54.5 -131t-130.5 -54t-130 54t-54 131z" />
<glyph unicode="k" horiz-adv-x="1380" d="M76 0v41h41q30 0 56 26t26 56v1188q0 30 -26 56t-56 26h-41v41h491v-852q89 115 132 174t51 74t8 26q0 32 -19.5 59t-44.5 27h-45v41h461v-41h-41q-77 0 -144.5 -36.5t-164.5 -145.5l428 -637q23 -33 64.5 -57.5t72.5 -24.5h41v-41h-676v41q25 0 44.5 14.5t19.5 36.5 q0 11 -11 29l-176 262v-260q0 -30 26 -56t56 -26v-41h-573z" />
<glyph unicode="l" horiz-adv-x="716" d="M55 0v41h41q30 0 56 26t26 56v1188q0 30 -26 56t-56 26h-41v41h492v-1311q0 -30 26 -56t56 -26h41v-41h-615z" />
<glyph unicode="m" horiz-adv-x="1875" d="M80 0v41h41q30 0 56 26t26 56v737q0 30 -26 56t-56 26h-41v41h491v-127q39 75 113.5 111.5t165.5 36.5q89 0 163.5 -33t100.5 -86q35 71 107.5 95t181.5 24q104 0 189 -65.5t85 -139.5v-676q0 -30 26 -56t56 -26h41v-41h-573v41q30 0 56 26t26 56v717q0 49 -19.5 74.5 t-48.5 25.5q-44 0 -80.5 -55t-36.5 -146v-616q0 -30 26 -56t56 -26v-41h-532v41q30 0 56 26t26 56v717q0 36 -16 57t-40 21q-45 0 -87 -63t-42 -177v-555q0 -30 26 -56t56 -26v-41h-573z" />
<glyph unicode="n" horiz-adv-x="1304" d="M72 0v41h41q30 0 56 26t26 56v737q0 30 -26 56t-56 26h-41v41h491v-127q39 75 113.5 111.5t165.5 36.5q104 0 189 -65.5t85 -139.5v-676q0 -30 26 -56t56 -26h41v-41h-573v41q30 0 56 26t26 56v717q0 36 -16 57t-40 21q-45 0 -87 -63t-42 -177v-555q0 -30 26 -56t56 -26 v-41h-573z" />
<glyph unicode="o" horiz-adv-x="1161" d="M68 492q0 139 68 257t186 186.5t258 68.5t258.5 -68.5t187 -186.5t68.5 -257t-68.5 -257t-187 -186.5t-258.5 -68.5t-258 68.5t-186 186.5t-68 257zM477 205q0 -65 9 -106t27.5 -56.5t31.5 -19t35 -3.5t35 3.5t31 19t27 56.5t9 106v573q0 65 -9 106t-27 56.5t-31 19 t-35 3.5t-34.5 -3.5t-31 -19t-28 -56.5t-9.5 -106v-573z" />
<glyph unicode="p" horiz-adv-x="1165" d="M68 -266h41q30 0 55.5 26t25.5 56v1044q0 30 -25.5 56t-55.5 26h-41v41h491v-104q61 125 178 125q82 0 147.5 -29t107 -76t69.5 -112.5t39.5 -133.5t11.5 -143q0 -77 -18 -165t-52.5 -171.5t-93.5 -138.5t-131 -55q-187 0 -258 137v-301q0 -29 25 -53t57 -29h41v-41h-614 v41zM559 291q0 -77 29.5 -136t64.5 -59q31 0 50.5 51.5t19.5 159.5v320q0 75 -6 130.5t-16.5 87.5t-23.5 47t-28 15q-29 0 -59.5 -40t-30.5 -95v-481z" />
<glyph unicode="q" horiz-adv-x="1165" d="M53 510q0 75 11.5 143t39.5 133.5t69.5 112.5t107 76t147.5 29q114 0 178 -125v104h492v-41h-41q-30 0 -56 -26t-26 -56v-1044q0 -30 26 -56t56 -26h41v-41h-615v41h41q30 0 56 26t26 56v301q-71 -137 -258 -137q-72 0 -131 55t-93.5 138.5t-52.5 171.5t-18 165zM442 307 q0 -108 19.5 -159.5t50.5 -51.5q34 0 64 53.5t30 124.5v498q0 55 -30.5 95t-59.5 40q-15 0 -28 -15t-23.5 -47t-16.5 -87.5t-6 -130.5v-320z" />
<glyph unicode="r" horiz-adv-x="997" d="M66 0v41h40q30 0 56 26t26 56v737q0 30 -26 56t-56 26h-40v41h491v-70q85 91 193 91q85 0 144.5 -63.5t59.5 -186.5q0 -77 -54 -131t-130 -54t-130 54t-54 131q0 76 54 130t130 54q23 0 23 10q0 3 -4.5 6.5t-14.5 6t-24 2.5q-59 0 -126 -45t-67 -107v-688q0 -30 26 -56 t56 -26h41v-41h-614z" />
<glyph unicode="s" horiz-adv-x="987" d="M86 0v461h41q7 -75 70 -176.5t129 -157.5q121 -100 209 -100q42 0 67 28.5t25 87.5q0 41 -29 73t-75.5 55t-102.5 46.5t-112.5 55t-103 71t-75.5 104t-29 146.5q0 74 32 134t85.5 97.5t121 58t140.5 20.5q89 0 203 -43q32 -13 63 -13q42 0 58 35h41v-369h-41 q-55 151 -90 209q-82 135 -220 140h-12q-34 0 -64 -32t-30 -77q0 -113 246 -227q36 -17 53.5 -25t48 -23.5t45 -26t37 -28t33.5 -33.5t25 -38.5t20.5 -46.5t11 -55t4.5 -66q0 -50 -21 -101.5t-63 -98t-115.5 -76t-166.5 -29.5q-56 0 -108 14.5t-83.5 31.5t-65 31.5 t-57.5 14.5q-51 0 -104 -72h-41z" />
<glyph unicode="t" horiz-adv-x="681" d="M35 942v41h12q89 3 179.5 40.5t154 106.5t63.5 150h41v-297h142v-41h-142v-778q0 -72 29 -72q19 0 36 33.5t17 77.5v65h41v-127q0 -81 -61 -121t-152 -40q-106 0 -192 48.5t-86 121.5v792h-82z" />
<glyph unicode="u" horiz-adv-x="1296" d="M63 942v41h492v-840q0 -36 15.5 -56.5t39.5 -20.5q45 0 87 62.5t42 176.5v555q0 30 -26 56t-56 26h-41v41h492v-860q0 -30 26 -56t56 -26h41v-41h-492v127q-32 -72 -100 -109.5t-150 -37.5q-119 0 -211 68t-92 177v635q0 30 -26 56t-56 26h-41z" />
<glyph unicode="v" horiz-adv-x="1230" d="M33 942v41h641v-41h-41q-24 0 -39.5 -17.5t-15.5 -41.5q0 -7 4 -23l227 -590l125 392q16 47 16 104q0 74 -31 125t-81 51h-41v41h395v-41h-41q-28 0 -57.5 -31t-51 -76t-34 -75.5t-17.5 -48.5l-225 -711h-248l-340 881q-8 25 -42.5 43t-61.5 18h-41z" />
<glyph unicode="w" horiz-adv-x="1560" d="M57 942v41h516v-41q-23 0 -38.5 -27t-6.5 -55l131 -438l78 301l-43 137q-10 31 -34 56.5t-52 25.5v41h518v-41q-23 0 -38.5 -27t-6.5 -55l129 -428l62 236q16 68 16 129t-25.5 103t-70.5 42v41h315v-41h-41q-26 0 -53 -36t-48 -92.5t-37 -108.5t-29 -99q-3 -14 -5 -20 l-151 -586h-187l-196 647l-166 -647h-191l-266 879q-8 24 -31.5 43.5t-48.5 19.5z" />
<glyph unicode="x" horiz-adv-x="1337" d="M76 0v41q48 0 235 197l189 198l-246 426q-18 30 -62 55t-86 25v41h642v-41q-29 0 -49.5 -19t-20.5 -42q0 -13 4 -19l104 -180l97 102q18 22 18 68q0 37 -17.5 63.5t-54.5 26.5v41h310v-41q-47 0 -213 -172l-119 -125l307 -530q17 -29 68 -51.5t96 -22.5v-41h-662v41 q28 0 50 19.5t22 41.5q0 12 -6 21l-160 274l-100 -106q-18 -19 -32.5 -69.5t-14.5 -96.5q0 -84 51 -84v-41h-350z" />
<glyph unicode="y" horiz-adv-x="1193" d="M57 942v41h635v-41q-27 0 -53.5 -22t-26.5 -46q0 -6 4 -14l218 -504l98 310q16 58 16 127q0 149 -86 149v41h309v-41q-35 0 -91 -61t-83 -146l-262 -817q-51 -157 -135 -235t-174 -78q-91 0 -154 72.5t-63 189.5q0 77 53.5 130.5t130.5 53.5t131 -54t54 -130t-54 -130 t-131 -54q-51 0 -51 -7q0 -16 31 -23t53 -7q76 0 150.5 72.5t119.5 211.5l23 70h-137l-387 856q-13 30 -60 58t-78 28z" />
<glyph unicode="z" horiz-adv-x="1120" d="M92 0v41l469 901h-41q-16 0 -41.5 -5t-60.5 -18t-71 -31t-71.5 -46.5t-63 -63t-45 -82.5t-17.5 -102h-41v389h868v-41l-469 -901h45q71 0 176.5 85t182.5 193.5t77 172.5h41v-492h-938z" />
<glyph unicode="&#x2000;" horiz-adv-x="768" />
<glyph unicode="&#x2001;" horiz-adv-x="1536" />
<glyph unicode="&#x2002;" horiz-adv-x="768" />
<glyph unicode="&#x2003;" horiz-adv-x="1536" />
<glyph unicode="&#x2004;" horiz-adv-x="512" />
<glyph unicode="&#x2005;" horiz-adv-x="384" />
<glyph unicode="&#x2006;" horiz-adv-x="256" />
<glyph unicode="&#x2007;" horiz-adv-x="256" />
<glyph unicode="&#x2008;" horiz-adv-x="192" />
<glyph unicode="&#x2009;" horiz-adv-x="307" />
<glyph unicode="&#x200a;" horiz-adv-x="85" />
<glyph unicode="&#x202f;" horiz-adv-x="307" />
<glyph unicode="&#x205f;" horiz-adv-x="384" />
<glyph unicode="&#x25fc;" horiz-adv-x="983" d="M0 0v983h983v-983h-983z" />
</font>
</defs>
</svg>
